<svg width="57" height="58" viewBox="0 0 57 58" fill="none" xmlns="http://www.w3.org/2000/svg">
<path d="M49.8214 2.67857H6.96429C4.59737 2.67857 2.67857 4.59737 2.67857 6.96429V26.25C2.67857 28.6169 4.59737 30.5357 6.96429 30.5357H49.8214C52.1884 30.5357 54.1071 28.6169 54.1071 26.25V6.96429C54.1071 4.59737 52.1884 2.67857 49.8214 2.67857Z" fill="#31D843"/>
<path fill-rule="evenodd" clip-rule="evenodd" d="M5.35714 6.96429C5.35714 6.07667 6.07667 5.35714 6.96429 5.35714H49.8214C50.709 5.35714 51.4286 6.07667 51.4286 6.96429V26.25C51.4286 27.1376 50.709 27.8571 49.8214 27.8571H45.5357V24.1071C45.5357 22.4022 44.8586 20.767 43.653 19.5615C42.4474 18.3559 40.8121 17.6786 39.1071 17.6786H17.6786C15.9736 17.6786 14.3385 18.3559 13.1329 19.5615C11.9273 20.767 11.25 22.4022 11.25 24.1071V27.8571H6.96429C6.07667 27.8571 5.35714 27.1376 5.35714 26.25V6.96429ZM6.96429 0C3.11803 0 0 3.11803 0 6.96429V26.25C0 30.0963 3.11803 33.2143 6.96429 33.2143H49.8214C53.6679 33.2143 56.7857 30.0963 56.7857 26.25V6.96429C56.7857 3.11803 53.6679 0 49.8214 0H6.96429ZM18.75 39.1071C18.75 37.332 17.3109 35.8929 15.5357 35.8929C13.7605 35.8929 12.3214 37.332 12.3214 39.1071V43.8214C12.3214 45.36 11.0742 46.6071 9.53571 46.6071H9.10714C7.33196 46.6071 5.89286 48.0463 5.89286 49.8214C5.89286 51.5966 7.33196 53.0357 9.10714 53.0357H9.53571C14.6246 53.0357 18.75 48.9103 18.75 43.8214V39.1071ZM41.25 35.8929C39.4748 35.8929 38.0357 37.332 38.0357 39.1071V43.8214C38.0357 48.9103 42.1611 53.0357 47.25 53.0357H47.6786C49.4537 53.0357 50.8929 51.5966 50.8929 49.8214C50.8929 48.0463 49.4537 46.6071 47.6786 46.6071H47.25C45.7114 46.6071 44.4643 45.36 44.4643 43.8214V39.1071C44.4643 37.332 43.0251 35.8929 41.25 35.8929ZM31.6071 39.1071C31.6071 37.332 30.168 35.8929 28.3929 35.8929C26.6177 35.8929 25.1786 37.332 25.1786 39.1071V54.1071C25.1786 55.8823 26.6177 57.3214 28.3929 57.3214C30.168 57.3214 31.6071 55.8823 31.6071 54.1071V39.1071Z" fill="white"/>
<path d="M28.3926 36.1426C30.0297 36.1426 31.3574 37.4703 31.3574 39.1074V54.1074C31.3573 55.7444 30.0296 57.0713 28.3926 57.0713C26.7557 57.0711 25.4289 55.7443 25.4287 54.1074V39.1074C25.4287 37.4704 26.7556 36.1427 28.3926 36.1426ZM15.5361 36.1426C17.1731 36.1428 18.5 37.4704 18.5 39.1074V43.8213C18.5 48.7719 14.4868 52.7859 9.53613 52.7861H9.10742C7.47031 52.7861 6.14258 51.4584 6.14258 49.8213C6.14265 48.1843 7.47036 46.8574 9.10742 46.8574H9.53613C11.2125 46.8572 12.5713 45.4978 12.5713 43.8213V39.1074C12.5713 37.4703 13.899 36.1426 15.5361 36.1426ZM41.25 36.1426C42.8871 36.1426 44.2139 37.4703 44.2139 39.1074V43.8213C44.2139 45.4979 45.5734 46.8574 47.25 46.8574H47.6787C49.3157 46.8575 50.6425 48.1843 50.6426 49.8213C50.6426 51.4583 49.3157 52.7861 47.6787 52.7861H47.25C42.2992 52.7861 38.2861 48.7721 38.2861 43.8213V39.1074C38.2861 37.4703 39.6129 36.1426 41.25 36.1426ZM6.96387 0.25H49.8213C53.5295 0.25 56.5359 3.25587 56.5361 6.96387V26.25C56.5361 29.9582 53.5296 32.9639 49.8213 32.9639H6.96387C3.25587 32.9636 0.25 29.958 0.25 26.25V6.96387C0.250226 3.25601 3.25601 0.250226 6.96387 0.25ZM53.8574 26.25C53.8574 28.4788 52.0502 30.2861 49.8213 30.2861H6.96387C4.73522 30.2859 2.92871 28.4787 2.92871 26.25V6.96387C2.92894 4.73536 4.73536 2.92894 6.96387 2.92871H49.8213C52.0501 2.92871 53.8572 4.73521 53.8574 6.96387V26.25ZM51.1787 26.25C51.1787 26.9995 50.5708 27.6074 49.8213 27.6074H45.7861V24.1074C45.7861 22.3362 45.0824 20.6372 43.8301 19.3848C42.5777 18.1324 40.8786 17.4288 39.1074 17.4287H17.6787C15.9074 17.4287 14.2085 18.1323 12.9561 19.3848C11.7036 20.6372 11 22.3362 11 24.1074V27.6074H6.96387C6.21452 27.6072 5.60742 26.9994 5.60742 26.25V6.96387C5.60765 6.21466 6.21466 5.60765 6.96387 5.60742H49.8213C50.5707 5.60742 51.1785 6.21452 51.1787 6.96387V26.25ZM51.6787 6.96387C51.6785 5.93837 50.8468 5.10742 49.8213 5.10742H6.96387C5.93851 5.10765 5.10765 5.93851 5.10742 6.96387V26.25C5.10742 27.2755 5.93837 28.1072 6.96387 28.1074H11.5V24.1074C11.5 22.4688 12.1509 20.897 13.3096 19.7383C14.4683 18.5796 16.04 17.9287 17.6787 17.9287H39.1074C40.746 17.9288 42.3179 18.5797 43.4766 19.7383C44.6351 20.8969 45.2861 22.4688 45.2861 24.1074V28.1074H49.8213C50.8469 28.1074 51.6787 27.2757 51.6787 26.25V6.96387ZM54.3574 6.96387C54.3572 4.45908 52.3262 2.42871 49.8213 2.42871H6.96387C4.45921 2.42894 2.42894 4.45921 2.42871 6.96387V26.25C2.42871 28.7548 4.45907 30.7859 6.96387 30.7861H49.8213C52.3264 30.7861 54.3574 28.755 54.3574 26.25V6.96387Z" stroke="black" stroke-width="0.5"/>
</svg>
