<svg width="64" height="68" viewBox="0 0 64 68" fill="none" xmlns="http://www.w3.org/2000/svg">
<path d="M56.8214 12.6786H13.9643C11.5974 12.6786 9.67857 14.5974 9.67857 16.9643V36.25C9.67857 38.6169 11.5974 40.5357 13.9643 40.5357H56.8214C59.1884 40.5357 61.1071 38.6169 61.1071 36.25V16.9643C61.1071 14.5974 59.1884 12.6786 56.8214 12.6786Z" fill="#31D843"/>
<path fill-rule="evenodd" clip-rule="evenodd" d="M12.3571 16.9643C12.3571 16.0767 13.0767 15.3571 13.9643 15.3571H56.8214C57.709 15.3571 58.4286 16.0767 58.4286 16.9643V36.25C58.4286 37.1376 57.709 37.8571 56.8214 37.8571H52.5357V34.1071C52.5357 32.4022 51.8586 30.767 50.653 29.5615C49.4474 28.3559 47.8121 27.6786 46.1071 27.6786H24.6786C22.9736 27.6786 21.3385 28.3559 20.1329 29.5615C18.9273 30.767 18.25 32.4022 18.25 34.1071V37.8571H13.9643C13.0767 37.8571 12.3571 37.1376 12.3571 36.25V16.9643ZM13.9643 10C10.118 10 7 13.118 7 16.9643V36.25C7 40.0963 10.118 43.2143 13.9643 43.2143H56.8214C60.6679 43.2143 63.7857 40.0963 63.7857 36.25V16.9643C63.7857 13.118 60.6679 10 56.8214 10H13.9643ZM25.75 49.1071C25.75 47.332 24.3109 45.8929 22.5357 45.8929C20.7605 45.8929 19.3214 47.332 19.3214 49.1071V53.8214C19.3214 55.36 18.0742 56.6071 16.5357 56.6071H16.1071C14.332 56.6071 12.8929 58.0463 12.8929 59.8214C12.8929 61.5966 14.332 63.0357 16.1071 63.0357H16.5357C21.6246 63.0357 25.75 58.9103 25.75 53.8214V49.1071ZM48.25 45.8929C46.4748 45.8929 45.0357 47.332 45.0357 49.1071V53.8214C45.0357 58.9103 49.1611 63.0357 54.25 63.0357H54.6786C56.4537 63.0357 57.8929 61.5966 57.8929 59.8214C57.8929 58.0463 56.4537 56.6071 54.6786 56.6071H54.25C52.7114 56.6071 51.4643 55.36 51.4643 53.8214V49.1071C51.4643 47.332 50.0251 45.8929 48.25 45.8929ZM38.6071 49.1071C38.6071 47.332 37.168 45.8929 35.3929 45.8929C33.6177 45.8929 32.1786 47.332 32.1786 49.1071V64.1071C32.1786 65.8823 33.6177 67.3214 35.3929 67.3214C37.168 67.3214 38.6071 65.8823 38.6071 64.1071V49.1071Z" fill="white"/>
<path d="M35.3926 46.1426C37.0297 46.1426 38.3574 47.4703 38.3574 49.1074V64.1074C38.3573 65.7444 37.0296 67.0713 35.3926 67.0713C33.7557 67.0711 32.4289 65.7443 32.4287 64.1074V49.1074C32.4287 47.4704 33.7556 46.1427 35.3926 46.1426ZM22.5361 46.1426C24.1731 46.1428 25.5 47.4704 25.5 49.1074V53.8213C25.5 58.7719 21.4868 62.7859 16.5361 62.7861H16.1074C14.4703 62.7861 13.1426 61.4584 13.1426 59.8213C13.1427 58.1843 14.4704 56.8574 16.1074 56.8574H16.5361C18.2125 56.8572 19.5713 55.4978 19.5713 53.8213V49.1074C19.5713 47.4703 20.899 46.1426 22.5361 46.1426ZM48.25 46.1426C49.8871 46.1426 51.2139 47.4703 51.2139 49.1074V53.8213C51.2139 55.4979 52.5734 56.8574 54.25 56.8574H54.6787C56.3157 56.8575 57.6425 58.1843 57.6426 59.8213C57.6426 61.4583 56.3157 62.7861 54.6787 62.7861H54.25C49.2992 62.7861 45.2861 58.7721 45.2861 53.8213V49.1074C45.2861 47.4703 46.6129 46.1426 48.25 46.1426ZM13.9639 10.25H56.8213C60.5295 10.25 63.5359 13.2559 63.5361 16.9639V36.25C63.5361 39.9582 60.5296 42.9639 56.8213 42.9639H13.9639C10.2559 42.9636 7.25 39.958 7.25 36.25V16.9639C7.25023 13.256 10.256 10.2502 13.9639 10.25ZM60.8574 36.25C60.8574 38.4788 59.0502 40.2861 56.8213 40.2861H13.9639C11.7352 40.2859 9.92871 38.4787 9.92871 36.25V16.9639C9.92894 14.7354 11.7354 12.9289 13.9639 12.9287H56.8213C59.0501 12.9287 60.8572 14.7352 60.8574 16.9639V36.25ZM58.1787 36.25C58.1787 36.9995 57.5708 37.6074 56.8213 37.6074H52.7861V34.1074C52.7861 32.3362 52.0824 30.6372 50.8301 29.3848C49.5777 28.1324 47.8786 27.4288 46.1074 27.4287H24.6787C23.0182 27.4287 21.4214 28.047 20.1963 29.1562L19.9561 29.3848C18.7036 30.6372 18 32.3362 18 34.1074V37.6074H13.9639C13.2145 37.6072 12.6074 36.9994 12.6074 36.25V16.9639C12.6076 16.2147 13.2147 15.6076 13.9639 15.6074H56.8213C57.5707 15.6074 58.1785 16.2145 58.1787 16.9639V36.25ZM58.6787 16.9639C58.6785 15.9384 57.8468 15.1074 56.8213 15.1074H13.9639C12.9385 15.1076 12.1076 15.9385 12.1074 16.9639V36.25C12.1074 37.2755 12.9384 38.1072 13.9639 38.1074H18.5V34.1074C18.5 32.5711 19.0722 31.0934 20.0986 29.96L20.3096 29.7383C21.4683 28.5796 23.04 27.9287 24.6787 27.9287H46.1074C47.746 27.9288 49.3179 28.5797 50.4766 29.7383C51.6351 30.8969 52.2861 32.4688 52.2861 34.1074V38.1074H56.8213C57.8469 38.1074 58.6787 37.2757 58.6787 36.25V16.9639ZM61.3574 16.9639C61.3572 14.4591 59.3262 12.4287 56.8213 12.4287H13.9639C11.4592 12.4289 9.42894 14.4592 9.42871 16.9639V36.25C9.42871 38.7548 11.4591 40.7859 13.9639 40.7861H56.8213C59.3264 40.7861 61.3574 38.755 61.3574 36.25V16.9639Z" stroke="black" stroke-width="0.5"/>
<circle cx="12" cy="12" r="11.625" fill="white" stroke="black" stroke-width="0.75"/>
<path d="M11.375 12.75V13.125H12.125V12.75H11.375ZM12.125 5.25C12.125 5.04289 11.9571 4.875 11.75 4.875C11.5429 4.875 11.375 5.04289 11.375 5.25H12.125ZM11.75 12.75H12.125V5.25H11.75H11.375V12.75H11.75Z" fill="black"/>
<path d="M12 12.375H11.625V13.125H12V12.375ZM19 13.125C19.2071 13.125 19.375 12.9571 19.375 12.75C19.375 12.5429 19.2071 12.375 19 12.375V13.125ZM12 12.75V13.125H19V12.75V12.375H12V12.75Z" fill="black"/>
</svg>
