<svg width="60" height="60" viewBox="0 0 60 60" fill="none" xmlns="http://www.w3.org/2000/svg">
<g filter="url(#filter0_d_134_186)">
<path d="M51.2308 39.2308H16.1539C12.0755 39.2308 8.76929 42.537 8.76929 46.6154M51.2308 39.2308V50.3077C51.2308 52.3469 49.5777 54 47.5385 54H16.1539C12.0755 54 8.76929 50.6938 8.76929 46.6154M51.2308 39.2308V9.69231C51.2308 7.6531 49.5777 6 47.5385 6H20.7693M8.76929 46.6154V13.3846C8.76929 9.3062 12.0755 6 16.1539 6H20.7693M30.1435 17.0769H40.2693M30.1435 28.1538H40.2693M20.7693 39V6" stroke="white" stroke-width="2" stroke-linecap="round" stroke-linejoin="round"/>
</g>
<defs>
<filter id="filter0_d_134_186" x="-4" y="0" width="68" height="68" filterUnits="userSpaceOnUse" color-interpolation-filters="sRGB">
<feFlood flood-opacity="0" result="BackgroundImageFix"/>
<feColorMatrix in="SourceAlpha" type="matrix" values="0 0 0 0 0 0 0 0 0 0 0 0 0 0 0 0 0 0 127 0" result="hardAlpha"/>
<feOffset dy="4"/>
<feGaussianBlur stdDeviation="2"/>
<feComposite in2="hardAlpha" operator="out"/>
<feColorMatrix type="matrix" values="0 0 0 0 0 0 0 0 0 0 0 0 0 0 0 0 0 0 0.25 0"/>
<feBlend mode="normal" in2="BackgroundImageFix" result="effect1_dropShadow_134_186"/>
<feBlend mode="normal" in="SourceGraphic" in2="effect1_dropShadow_134_186" result="shape"/>
</filter>
</defs>
</svg>
