<svg width="60" height="60" viewBox="0 0 60 60" fill="none" xmlns="http://www.w3.org/2000/svg">
<g filter="url(#filter0_d_134_190)">
<path d="M16.75 45H10.3751C6.80006 45 5 43.1999 5 39.6249V10.3751C5 6.80006 6.80006 5 10.3751 5H21.125C24.7 5 26.4999 6.80006 26.4999 10.3751V15M33.5001 15V10.3751C33.5001 6.80006 35.3 5 38.875 5H49.6249C53.1999 5 55 6.80006 55 10.3751V39.6249C55 43.1999 53.1999 45 49.6249 45H43.425M25 27.5H35M25 35H35M30 55V47.5M43.425 21.05V48.95C43.425 52.975 41.4251 55 37.4001 55H22.8C18.775 55 16.75 52.975 16.75 48.95V21.05C16.75 17.025 18.775 15 22.8 15H37.4001C41.4251 15 43.425 17.025 43.425 21.05Z" stroke="#4DBC53" stroke-width="1.5" stroke-miterlimit="10" stroke-linecap="round" stroke-linejoin="round"/>
</g>
<defs>
<filter id="filter0_d_134_190" x="-4" y="0" width="68" height="68" filterUnits="userSpaceOnUse" color-interpolation-filters="sRGB">
<feFlood flood-opacity="0" result="BackgroundImageFix"/>
<feColorMatrix in="SourceAlpha" type="matrix" values="0 0 0 0 0 0 0 0 0 0 0 0 0 0 0 0 0 0 127 0" result="hardAlpha"/>
<feOffset dy="4"/>
<feGaussianBlur stdDeviation="2"/>
<feComposite in2="hardAlpha" operator="out"/>
<feColorMatrix type="matrix" values="0 0 0 0 0 0 0 0 0 0 0 0 0 0 0 0 0 0 0.25 0"/>
<feBlend mode="normal" in2="BackgroundImageFix" result="effect1_dropShadow_134_190"/>
<feBlend mode="normal" in="SourceGraphic" in2="effect1_dropShadow_134_190" result="shape"/>
</filter>
</defs>
</svg>
