<svg width="60" height="60" viewBox="0 0 60 60" fill="none" xmlns="http://www.w3.org/2000/svg">
<g filter="url(#filter0_d_134_194)">
<path d="M50.9531 27.1875L46.875 23.1122V13.125C46.875 11.5781 45.6094 10.3125 44.0625 10.3125H41.25C39.7031 10.3125 38.4375 11.5781 38.4375 13.125V14.6803L32.8125 9.06094C32.0447 8.33531 31.3416 7.5 30 7.5C28.6584 7.5 27.9553 8.33531 27.1875 9.06094L9.04688 27.1875C8.16938 28.1016 7.5 28.7681 7.5 30C7.5 31.5834 8.715 32.8125 10.3125 32.8125H13.125V49.6875C13.125 51.2344 14.3906 52.5 15.9375 52.5H21.5625C23.1158 52.5 24.375 51.2408 24.375 49.6875V38.4375C24.375 36.8906 25.6406 35.625 27.1875 35.625H32.8125C34.3594 35.625 35.625 36.8906 35.625 38.4375V49.6875C35.625 51.2408 35.4779 52.5 37.0312 52.5H44.0625C45.6094 52.5 46.875 51.2344 46.875 49.6875V32.8125H49.6875C51.285 32.8125 52.5 31.5834 52.5 30C52.5 28.7681 51.8306 28.1016 50.9531 27.1875Z" stroke="white" stroke-width="2" stroke-linejoin="round"/>
</g>
<defs>
<filter id="filter0_d_134_194" x="-4" y="0" width="68" height="68" filterUnits="userSpaceOnUse" color-interpolation-filters="sRGB">
<feFlood flood-opacity="0" result="BackgroundImageFix"/>
<feColorMatrix in="SourceAlpha" type="matrix" values="0 0 0 0 0 0 0 0 0 0 0 0 0 0 0 0 0 0 127 0" result="hardAlpha"/>
<feOffset dy="4"/>
<feGaussianBlur stdDeviation="2"/>
<feComposite in2="hardAlpha" operator="out"/>
<feColorMatrix type="matrix" values="0 0 0 0 0 0 0 0 0 0 0 0 0 0 0 0 0 0 0.25 0"/>
<feBlend mode="normal" in2="BackgroundImageFix" result="effect1_dropShadow_134_194"/>
<feBlend mode="normal" in="SourceGraphic" in2="effect1_dropShadow_134_194" result="shape"/>
</filter>
</defs>
</svg>
