<svg width="60" height="60" viewBox="0 0 60 60" fill="none" xmlns="http://www.w3.org/2000/svg">
<g filter="url(#filter0_d_134_182)">
<path d="M22.0285 53.1116L29.998 45.1421M29.998 45.1421L37.9676 53.1116M29.998 45.1421V14.8579M37.9676 6.88843L29.998 14.8579M29.998 14.8579L22.0285 6.88843M6 34.6541L16.8866 37.5712M16.8866 37.5712L13.9695 48.4577M16.8866 37.5712L43.1134 22.4291M54 25.3461L43.1134 22.4291M43.1134 22.4291L46.0305 11.5425M13.9695 11.5425L16.8866 22.4291M16.8866 22.4291L6 25.3461M16.8866 22.4291L43.1134 37.5712M46.0305 48.4577L43.1134 37.5712M43.1134 37.5712L54 34.6541" stroke="white" stroke-width="2" stroke-linecap="round" stroke-linejoin="round"/>
</g>
<defs>
<filter id="filter0_d_134_182" x="-4" y="0" width="68" height="68" filterUnits="userSpaceOnUse" color-interpolation-filters="sRGB">
<feFlood flood-opacity="0" result="BackgroundImageFix"/>
<feColorMatrix in="SourceAlpha" type="matrix" values="0 0 0 0 0 0 0 0 0 0 0 0 0 0 0 0 0 0 127 0" result="hardAlpha"/>
<feOffset dy="4"/>
<feGaussianBlur stdDeviation="2"/>
<feComposite in2="hardAlpha" operator="out"/>
<feColorMatrix type="matrix" values="0 0 0 0 0 0 0 0 0 0 0 0 0 0 0 0 0 0 0.25 0"/>
<feBlend mode="normal" in2="BackgroundImageFix" result="effect1_dropShadow_134_182"/>
<feBlend mode="normal" in="SourceGraphic" in2="effect1_dropShadow_134_182" result="shape"/>
</filter>
</defs>
</svg>
