<svg xmlns="http://www.w3.org/2000/svg" version="1.1" xmlns:xlink="http://www.w3.org/1999/xlink" xmlns:svgjs="http://svgjs.dev/svgjs" width="1440" height="1080" preserveAspectRatio="none" viewBox="0 0 1440 1080"><g mask="url(&quot;#SvgjsMask2929&quot;)" fill="none"><rect width="1440" height="1080" x="0" y="0" fill="url(&quot;#SvgjsLinearGradient2930&quot;)"></rect><circle r="12.19" cx="596.83" cy="558.0100000000001" filter="url(#SvgjsFilter2931)" fill="rgba(255, 255, 255, 1)"></circle><circle r="17.18" cx="932.56" cy="441.8" filter="url(#SvgjsFilter2931)" fill="rgba(255, 255, 255, 1)"></circle><circle r="16.795" cx="592.665" cy="160.29500000000002" filter="url(#SvgjsFilter2931)" fill="rgba(56, 108, 11, 1)"></circle><circle r="15.87" cx="258" cy="883.8100000000001" filter="url(#SvgjsFilter2931)" fill="rgba(255, 255, 255, 1)"></circle><circle r="11.65" cx="345.38" cy="877.31" filter="url(#SvgjsFilter2931)" fill="rgba(255, 255, 255, 1)"></circle><circle r="14.61" cx="204.2" cy="224.10000000000002" filter="url(#SvgjsFilter2931)" fill="rgba(56, 108, 11, 1)"></circle><circle r="9.165" cx="970.4749999999999" cy="879.9449999999999" filter="url(#SvgjsFilter2931)" fill="rgba(56, 108, 11, 1)"></circle><circle r="10.26" cx="465.21999999999997" cy="164.89" filter="url(#SvgjsFilter2931)" fill="rgba(56, 108, 11, 1)"></circle><circle r="11.57" cx="1312.81" cy="233.34" filter="url(#SvgjsFilter2931)" fill="rgba(255, 255, 255, 1)"></circle><circle r="15.58" cx="367.82" cy="324.96" filter="url(#SvgjsFilter2931)" fill="rgba(255, 255, 255, 1)"></circle><circle r="16.225" cx="698.855" cy="652.095" filter="url(#SvgjsFilter2931)" fill="rgba(56, 108, 11, 1)"></circle><circle r="9.525" cx="1367.025" cy="181.945" filter="url(#SvgjsFilter2931)" fill="rgba(255, 255, 255, 1)"></circle><circle r="15.795" cx="421.945" cy="770.8449999999999" filter="url(#SvgjsFilter2931)" fill="rgba(56, 108, 11, 1)"></circle><circle r="10.93" cx="509.90000000000003" cy="541.3399999999999" filter="url(#SvgjsFilter2931)" fill="rgba(56, 108, 11, 1)"></circle><circle r="11.67" cx="197.20999999999998" cy="849.25" filter="url(#SvgjsFilter2931)" fill="rgba(56, 108, 11, 1)"></circle><circle r="10.67" cx="1365.75" cy="407.25" filter="url(#SvgjsFilter2931)" fill="rgba(56, 108, 11, 1)"></circle><circle r="14.35" cx="1120.4299999999998" cy="718.48" filter="url(#SvgjsFilter2931)" fill="rgba(255, 255, 255, 1)"></circle><circle r="9.44" cx="1067.39" cy="1015.25" filter="url(#SvgjsFilter2931)" fill="rgba(56, 108, 11, 1)"></circle><circle r="17.01" cx="681.37" cy="922.1899999999999" filter="url(#SvgjsFilter2931)" fill="rgba(56, 108, 11, 1)"></circle><circle r="15.465" cx="92.36500000000001" cy="631.265" filter="url(#SvgjsFilter2931)" fill="rgba(56, 108, 11, 1)"></circle><path d="M1405.4 1057.4L1383.4 1053.1 1391.9 1042.5C1392.8 1041.5 1392.8 1039.5 1391.5 1037.9 1389.9 1037.1 1387.9 1037.2 1387.1 1038.8L1376.1 1051.6 1358.8 1049 1381.9 1022.3C1382.6 1020.7 1382.6 1018.7 1381.6 1017.7 1379.7 1016.3 1377.7 1016.4 1376.9 1018L1351.5 1047.5 1325.3 1042.7 1347.6 1021.7 1317 1019.8 1334.2 999.3 1372.6 1005.9C1372.8 1006.5 1373.4 1006.3 1374 1006.1 1375.2 1005.7 1376.2 1004.6 1376.4 1003.2 1376.5 1001.8 1375.3 1000.2 1373.6 999.4L1338.9 993.6 1350.5 980.5 1367.2 983.4C1368 983.8 1368.6 983.6 1369.2 983.3 1369.8 983.1 1370.8 982.1 1371 980.7 1371.1 979.3 1369.9 977.7 1368.5 977.5L1355.3 974.8 1369.4 957.4C1371 956.2 1370.4 954.4 1369.1 952.8 1368.1 951.8 1366.1 951.8 1364.7 953.7L1350.3 970.4 1345.7 957.8C1345.1 956 1342.9 955.4 1341.7 955.9 1339.8 956.5 1339.1 958.1 1339.7 959.9L1345.6 976.2 1333.9 989.2 1322.2 956.7C1321.6 954.9 1320 954.1 1318.1 954.8 1316.9 955.2 1315.6 957.1 1316.2 958.9L1329.2 995 1312.1 1015.5 1304.9 986.1 1288.1 1011.2 1279 985.9 1303.8 956.5C1305.2 954.7 1304.5 952.9 1303.5 951.9 1302.5 950.9 1300.4 950.9 1298.9 952.2L1276.6 979.2 1270.8 963 1281.6 949.6C1283.2 948.3 1283.1 946.3 1281.3 944.9 1280.2 943.9 1278.2 944 1276.8 945.8L1268.2 955.7 1260.6 934.7C1259.9 932.9 1258.3 932.1 1256.5 932.7S1253.9 935 1254.6 936.8L1262.1 957.9 1249.1 955.8C1246.9 955.2 1245.3 956.5 1245.1 957.9 1244.6 960.1 1245.8 961.7 1247.9 961.7L1264.7 965.1 1270.6 981.4 1236.2 974.7C1234.2 974.8 1232.6 976 1232.4 977.4 1231.9 979.7 1233.1 981.3 1235.2 981.2L1273 988 1282.1 1013.3 1253.1 1004.7 1266.3 1031.9 1240.1 1027 1227.1 990.9C1226.4 989.1 1224.2 988.6 1223 989 1221.2 989.6 1220.4 991.3 1221.1 993.1L1233 1026.2 1215.5 1023 1209.6 1006.7C1209 1004.9 1207.3 1004.1 1205.5 1004.8 1204.3 1005.2 1203 1007.1 1203.6 1008.9L1208.2 1021.5 1186.4 1017.8C1184.2 1017.2 1182.6 1018.5 1182.6 1020.5 1182.5 1021.9 1183.1 1023.7 1185.1 1023.7L1207.1 1028 1198.6 1038.5C1197.6 1039.6 1197.7 1041.6 1198.7 1042.6 1199.8 1043.6 1201.2 1043.7 1201.8 1043.5 1202.4 1043.3 1203 1043.1 1203.4 1042.3L1214.4 1029.5 1231.7 1032.1 1208.6 1058.8C1207.8 1060.4 1207.9 1062.4 1208.9 1063.4 1210 1064.4 1211.4 1064.6 1212.6 1064.1 1213.2 1063.9 1213.2 1063.9 1213.6 1063.1L1239 1033.6 1265.2 1038.4 1242.8 1059.4 1273.5 1061.3 1256.3 1081.7 1217.9 1075.1C1216.5 1075 1214.7 1075.6 1214.1 1077.9 1214 1079.3 1215.2 1080.9 1216.8 1081.6L1251.6 1087.5 1240 1100.5 1223.3 1097.7C1221.7 1096.9 1220.1 1098.2 1219.5 1100.4 1219.3 1101.8 1220.6 1103.4 1222.2 1104.2L1235.2 1106.3 1221.1 1123.7C1219.5 1124.9 1220.1 1126.7 1221.4 1128.3 1222.2 1128.7 1223.6 1128.9 1224.2 1128.6 1224.8 1128.4 1225.4 1128.2 1225.8 1127.4L1240.2 1110.7 1244.7 1123.3C1245.4 1125.1 1247.6 1125.7 1248.8 1125.2L1248.8 1125.2C1250.6 1124.6 1251.4 1122.9 1250.8 1121.1L1244.9 1104.9 1256.6 1091.9 1268.2 1124.4C1268.9 1126.2 1270.5 1127 1272.3 1126.3S1274.9 1124 1274.3 1122.2L1261.3 1086.1 1278.4 1065.6 1285.6 1095 1302.4 1069.9 1311.5 1095.2 1286.7 1124.6C1285.3 1126.4 1286 1128.2 1287 1129.2 1288 1130.2 1290 1130.1 1291.6 1128.9L1314.1 1102.5 1319.7 1118.1 1308.9 1131.5C1307.3 1132.8 1307.4 1134.8 1309.2 1136.2 1310.2 1137.2 1312.3 1137.1 1313.9 1135.9L1322.3 1125.3 1329.9 1146.4C1330.5 1148.2 1332.2 1149 1334 1148.3S1336.6 1146.1 1335.9 1144.3L1328.3 1123.2 1341.4 1125.3C1342.2 1125.7 1342.8 1125.5 1343.4 1125.3 1344.6 1124.8 1345 1124 1345.4 1123.2 1345.9 1120.9 1344.7 1119.4 1342.6 1119.4L1325.7 1115.9 1319.9 1099.7 1354.3 1106.4C1354.9 1106.2 1355.5 1105.9 1356.1 1105.7 1357.3 1105.3 1357.7 1104.5 1358.1 1103.7 1358.6 1101.4 1357.4 1099.8 1355.3 1099.9L1317.5 1093.1 1308.4 1067.8 1337.4 1076.4 1324.2 1049.2 1350.4 1054 1363.4 1090.2C1364.1 1092 1366.3 1092.5 1367.5 1092.1 1369.3 1091.5 1370.1 1089.8 1369.4 1088L1357.7 1055.5 1375 1058.1 1380.9 1074.4C1381.5 1076.2 1383.1 1077 1384.9 1076.3S1387.5 1074 1386.9 1072.2L1382.3 1059.6 1404.1 1063.3C1404.9 1063.7 1405.5 1063.5 1406.1 1063.3 1406.7 1063 1407.7 1062 1407.9 1060.6 1408 1059.2 1407.4 1057.4 1405.4 1057.4ZM1325.6 1066.4L1302 1059.2 1288.3 1079.8 1282.2 1055.4 1257.9 1054 1275.5 1036.8 1264.9 1014.7 1288.5 1021.9 1302.2 1001.3 1308 1025.1 1332.6 1027.1 1314.8 1043.7 1325.6 1066.4Z" fill="rgba(56, 108, 11, 1)"></path><path d="M628.4 1076.5L650.4 1043.3 685.3 1036.6 673.7 1070.1 637.8 1087.3C637.8 1087.3 637.4 1087.7 637.4 1087.7 636.7 1088.3 636.6 1089.6 636.9 1090.7 637.5 1092.1 639.1 1092.5 640.2 1091.6L671.6 1076.4 666 1092.7 652.2 1099.6C652.2 1099.6 651.9 1099.9 651.9 1099.9 651.2 1100.5 651.1 1101.9 651.3 1102.9 651.9 1104.3 653.6 1104.8 654.7 1103.8L664.2 1099.4 659.9 1111.4C659.5 1112.3 660.4 1114.1 661.4 1114.5 662.7 1115.3 664.2 1114 664.6 1113L668.8 1101.1 673.3 1110.6C673.8 1112 675.5 1112.4 676.6 1111.5 678 1110.9 678.4 1109.3 677.5 1108.2L670.6 1094.4 676.5 1078.5 691.7 1109.8C692.3 1111.2 693.9 1111.7 695 1110.8 696.4 1110.2 696.9 1108.5 695.9 1107.4L678.7 1071.5 690.3 1037.9 713.9 1065.1 711.1 1105.1C711 1106.4 711.9 1107.5 713.3 1107.6 714.6 1107.7 715.7 1106.8 715.8 1105.4L718.3 1070.2 729.6 1083.2 728.6 1098.1C728.5 1099.5 729.4 1100.6 730.8 1100.7 732.1 1100.8 733.2 1099.8 733.3 1098.5L734 1088.3 742.8 1098.5C743.4 1099.9 745.1 1099.6 746.2 1098.7 747.3 1097.8 747.4 1096.4 746.5 1095.3L738.3 1085.9 748.4 1086.6C749.8 1086.7 750.9 1085.8 751 1084.4S750.1 1082 748.8 1081.9L733.9 1080.8 722.5 1067.8 757.7 1070.3C759.1 1070.3 760.2 1069.4 760.3 1068 760.4 1066.7 759.4 1065.6 758.1 1065.5L718.1 1062.7 694.8 1035.9 729.7 1029.1 761.8 1050.8C763.1 1051.6 764.5 1051 765.6 1050.1 766.4 1048.7 765.8 1047.3 764.9 1046.3L736 1026.9 752.9 1023.6 765.5 1032.3C766.8 1033.1 768.2 1032.5 769.3 1031.6 770.1 1030.3 769.5 1028.9 768.9 1028.2L760.1 1022.4 772.5 1019.9C773.6 1019.6 775 1018.4 774.4 1017 773.8 1015.6 772.9 1014.5 771.5 1015.1L759.1 1017.6 764.8 1008.8C765.6 1007.5 765 1006.1 764.3 1005.4 763.4 1005 762 1004.9 761.3 1005.5 761.3 1005.5 760.9 1005.8 760.9 1005.8L752.2 1018.5 735.3 1021.7 754.7 992.8C755.5 991.5 754.9 990.1 754.2 989.4 753.3 989 751.9 988.9 751.2 989.5 751.2 989.5 750.8 989.8 750.8 989.8L728.7 1023 693.9 1029.7 705.5 996.1 741.4 978.9C742.8 978.4 743.2 976.7 742.3 975.6 741.7 974.2 740 973.7 738.9 974.7L707.6 989.8 713.2 973.6 726.9 966.7C728.3 966.1 728.8 964.4 727.8 963.4 727.2 962 725.6 961.5 724.5 962.4L715 966.9 719.2 954.9C719.6 953.9 718.8 952.2 717.8 951.8 716.8 951.3 715.7 951.6 715 952.2 714.6 952.6 714.3 952.9 714.2 953.6L710 965.5 705.6 956C705 954.6 703.3 954.1 702.2 955.1 702.2 955.1 701.9 955.4 701.9 955.4 701.1 956 701 957.4 701.3 958.4L708.2 972.2 702.6 988.5 687.4 957.1C686.9 955.7 685.2 955.3 684.1 956.2 684.1 956.2 683.7 956.5 683.7 956.5 683 957.1 682.9 958.5 683.2 959.5L700.4 995.4 688.9 1029 665.6 1002.2 668.4 962.2C668.5 960.9 667.5 959.8 666.2 959.7 664.8 959.6 663.7 960.5 663.6 961.9L660.8 996.8 649.5 983.7 650.6 968.8C650.6 967.5 649.7 966.4 648.3 966.3S645.9 967.1 645.8 968.5L645.1 978.6 636.9 969.2C636 968.1 634.6 968 633.5 969 632.4 969.9 632.3 971.3 633.3 972.4L641.5 981.8 631.3 981.1C630.6 981 630 981 629.2 981.6S628.5 982.9 628.4 983.6C628.3 984.9 629.3 986 630.6 986.1L645.5 987.2 656.9 1000.2 621.6 997.7C621 997.7 620.3 997.6 619.6 998.3 619.2 998.6 618.8 999.6 618.7 1000.3 618.6 1001.6 619.6 1002.7 620.9 1002.8L660.9 1005.6 684.2 1032.4 649.4 1039.2 616.2 1017.1C615.2 1016.7 613.9 1016.6 613.1 1017.2 613.1 1017.2 612.8 1017.5 612.8 1017.5 612 1018.8 612.6 1020.2 613.2 1021L642.1 1040.3 625.2 1043.6 612.6 1034.9C611.6 1034.5 610.2 1034.4 609.5 1035 609.5 1035 609.1 1035.3 609.1 1035.3 608.4 1036.6 608.9 1038 609.6 1038.7L618.4 1044.5 605.9 1047C605.6 1047.3 604.9 1047.3 604.5 1047.6 603.8 1048.2 603.4 1049.2 603.7 1050.2 604.2 1051.6 605.2 1052.7 606.6 1052.1L619 1049.6 613.3 1058.4C612.5 1059.7 613.1 1061.1 613.7 1061.8 615 1062.6 616.4 1062 617.2 1061.4L625.9 1048.7 642.8 1045.5 623.4 1074.4C622.6 1075.7 623.2 1077.1 623.8 1077.9 625.9 1078 627.6 1077.8 628.4 1076.5Z" fill="rgba(56, 108, 11, 1)"></path><path d="M1130.2 175.5L1137.9 165.6 1141.3 173.3C1141.6 174.2 1142.8 174.7 1144 174.5 1144.9 173.8 1145.4 172.6 1145.1 171.8L1140.8 161.6 1148 152.4 1156.7 173.3C1157.3 174.6 1158.4 175.1 1159.3 174.4 1160.6 174.2 1161.1 173 1160.5 171.7L1150.9 148.7 1157.3 140.3 1181.5 143.4 1185.2 151.9 1168.8 172.8C1168.8 173.2 1168.7 173.6 1168.7 174 1168.6 174.4 1168.9 175.3 1169.2 175.7 1170.3 176.6 1171.6 176.4 1172.1 175.3L1187.1 156.2 1191.4 166.9 1184 176.8C1183.6 176.7 1183.6 177.1 1183.5 177.5 1183.4 178.3 1183.7 179.2 1184.5 179.7 1185.2 180.2 1186.4 179.9 1187.3 179.2L1193.2 171.1 1198.8 184.3C1199.1 185.2 1200.2 185.7 1201.5 185.5 1202.4 184.8 1202.9 183.7 1202.6 182.8L1197.3 170.4 1205.7 171.5C1206.9 171.7 1207.8 170.6 1207.9 169.8 1208.1 168.6 1207.4 167.3 1206.2 167.2L1195.5 165.8 1191.3 155.1 1213.5 158C1214.7 158.2 1215.6 157.5 1215.7 156.3 1215.9 155.1 1215.2 154.2 1214 154L1189.4 150.9 1185.3 141.9 1200.3 122.4 1209.4 123.6 1219.3 147.1C1219.6 148.3 1221.1 148.9 1222 148.2 1223.2 148 1223.4 146.8 1223.1 145.5L1214.2 124.2 1225.7 125.7 1230 136.3C1230.3 137.2 1231.8 137.8 1232.6 137.5S1234.1 135.7 1233.8 134.4L1230.5 126.3 1244.3 128.1C1245.5 128.3 1246.5 127.2 1246.6 126 1246.7 125.2 1246.1 123.9 1244.9 123.7L1231 122 1236.4 114.6C1236.9 113.8 1237.1 112.6 1236 111.7 1235.2 111.2 1233.6 111.4 1233.1 112.1L1226.3 121.3 1214.8 119.9 1228.8 101.5C1229.4 100.4 1229.5 99.2 1228.4 98.2 1227.7 97.7 1226 97.9 1225.5 98.7L1210 119.2 1200.9 118.1 1191.3 95.5 1197.5 87.8 1222.1 91C1223.3 91.1 1224.2 90.4 1224.3 89.2 1224.5 88 1223.9 86.7 1222.7 86.6L1200.5 83.7 1207.3 74.5 1218 75.9C1219.2 76.1 1220.1 75.4 1220.2 74.2 1220.4 73 1219.7 72.1 1218.5 71.9L1210.2 70.9 1218.4 60.2C1218.9 59.5 1218.7 57.9 1218 57.4 1216.8 56.8 1215.6 56.6 1215.1 57.8L1206.4 68.8 1202.7 59.8C1202 58.9 1200.9 58.4 1200 58.7 1199.2 59 1198.7 59.7 1198.6 60.5 1198.6 60.5 1198.6 60.9 1198.9 61.4L1203.5 72.8 1196.6 82 1187 59.8C1186.8 58.6 1185.6 58 1184.3 58.7 1183.9 59 1183.4 59.4 1183.3 60.2 1183.3 60.5 1183.2 60.9 1183.2 61.3L1193.7 85.7 1188 93 1163.8 89.9 1159.8 80.1 1174.8 60.3C1175.8 59.2 1175.5 57.9 1174.4 57.4 1173.7 56.5 1172.5 56.7 1171.5 57.8L1157.9 75.8 1153.2 65.1 1160 56.3C1160.5 55.6 1160.3 54.4 1159.6 53.5 1158.4 52.9 1157.3 52.8 1156.7 53.9L1151.4 60.5 1146.5 48.9C1146.2 47.7 1145 47.6 1143.8 47.8 1143.3 48.1 1142.8 48.9 1142.7 49.7 1142.7 49.7 1142.7 50.1 1142.6 50.5L1147.9 62.8 1138 61.6C1137.2 61.5 1135.9 62.1 1135.7 63.3 1135.6 64.5 1136.7 65.4 1137.5 65.5L1149.8 67.1 1154.4 77.8 1130.2 74.7C1129 74.5 1128.1 75.6 1127.9 76.8S1128.5 78.9 1129.7 79.1L1156.2 82.5 1159.9 91.4 1144.9 110.9 1134.6 109.5 1124.8 85.7C1124.1 84.8 1123 84.2 1121.7 84.5 1121.3 84.8 1120.8 85.6 1120.7 86.4 1120.6 86.8 1120.6 87.2 1120.9 87.6L1129.9 108.9 1118.3 107.4 1113.7 96.8C1113.4 95.9 1112.2 95.4 1111 95.6 1110.1 96.3 1109.6 97.4 1109.8 98.3L1113.6 106.8 1100.9 105.2C1100.1 105.1 1098.8 106.1 1098.7 106.9 1098.5 108.1 1099.5 109.5 1100.3 109.6L1113 111.2 1107.3 118.1C1107.2 118.5 1107.2 118.9 1107.1 119.3 1107 120.1 1107.3 120.9 1107.7 121.4 1108.8 121.9 1110.1 121.7 1111 121L1117.8 111.8 1129.3 113.3 1115.2 131.6C1114.3 132.7 1114.5 134 1115.3 134.5 1116.4 135.4 1117.6 135.2 1118.5 134.5L1134.1 113.9 1144.4 115.2 1154 137.8 1148.1 145.6 1121.5 142.1C1120.4 142 1119.5 142.7 1119.3 143.9 1119.2 145 1119.8 145.9 1121 146.1L1145.2 149.2 1138 158.4 1125.7 156.8C1124.9 156.7 1123.6 157.7 1123.4 158.9 1123.3 160.1 1124.3 161 1125.1 161.1L1135.1 162.4 1126.8 173.1C1126.8 173.5 1126.8 173.5 1126.7 173.9 1126.6 174.6 1126.9 175.5 1127.3 175.9 1128.4 176.5 1129.7 176.2 1130.2 175.5ZM1149.1 115.8L1148.2 113.3 1149.7 111.5 1161.8 95.7 1163.3 93.9 1165.6 94.2 1185.1 96.7 1187.5 97 1188.4 99.1 1196.1 117.5 1197 119.6 1195.5 121.8 1183.5 137.2 1182 139.4 1179.6 139.1 1160.2 136.6 1157.8 136.3 1156.9 133.8 1149.1 115.8Z" fill="rgba(56, 108, 11, 1)"></path><path d="M288.8 322L284.8 269.2 294.1 257.9 326.2 263.8 331.4 277.8 308.3 325.6C308.2 326.2 308.2 326.2 308.1 326.8 307.8 328.1 308.2 329.5 310 330.5 311.9 330.8 313.3 330.4 314.2 328.6L334.3 286.8 342 308.4 333.4 327C333.4 327 333.3 327.6 333.3 327.6 333.1 328.8 333.5 330.2 335.2 331.2 336.4 332.1 338.5 331.1 339.5 329.4L345.6 317.5 351.1 333.5C351.5 334.8 353.3 335.8 355.3 335.5S357.7 332.7 357.4 330.7L351.8 315.4 363.8 320.8C365.6 321.8 367.7 320.9 368.7 319.1 368.9 317.9 368.6 315.9 366.9 314.9L348.3 306.3 340.7 284 382.5 304.1C384.3 305.1 386.4 304.2 387.3 303 387.6 301.1 387.3 299.1 385.6 298.2L337.6 275.7 332.5 261.1 353.2 236.9 368.4 239.7 398.8 283C399.8 284.5 401.7 284.9 403.2 283.8S405 280.9 404 279.4L377.2 241.3 400.5 245.6 411.8 262C412.8 263.5 414.7 263.8 416.8 262.9S418.6 260 417.6 258.5L409.3 247.2 426.3 250.3C428.1 250.7 429.8 249 430.1 247.1 430.4 245.3 429.4 243.8 427.5 243.4L410.5 240.3 421.7 232.6C423.8 231.7 424.2 229.8 422.5 228.2 421.5 226.7 419.6 226.3 418.1 227.4L401.7 238.7 378.4 234.4 417.1 208.3C418.6 207.3 419 204.8 418 203.3S415.1 201.4 413.6 202.5L369.6 232.8 354.5 230 343.9 199.4 353.8 188.2 406.5 184.2C408.5 184 409.5 182.2 409.9 180.3 409.6 178.3 407.8 177.3 405.9 177L359.7 180.8 374.6 163.4 395 161.9C397 161.7 398 159.9 398.4 158 398 156.6 396.3 155 394.3 155.3L381.1 156.1 392 143.2C392.8 142 392.6 140 391.5 138.5 389.8 137.5 387.8 137.8 386.9 139L376 151.9 374.7 138C374.3 136.7 372.6 135 371.3 135.4 369.4 135.1 368.5 136.2 368.2 138.1 368.2 138.1 368.1 138.8 368.1 138.8L369.5 159.2 354.6 176.6 350.7 130.4C350.4 128.4 349.4 126.9 347.4 127.1 345.4 127.4 344.6 128.6 344.3 129.8 344.2 130.5 344.2 130.5 344.2 130.5L348.7 184 338.8 195.2 306.7 189.3 302.1 175.4 324.7 126.9C325.6 125.7 324.6 123.6 323.5 122.7 321.7 121.8 319.6 122.7 318.6 124.5L298.6 166.3 290.8 144.7 299.4 126.1C300.4 124.4 300.1 122.4 298.3 122 296.5 121 294.4 121.9 293.5 123.1L287.9 135.7 282.4 119.7C281.4 118.2 279.6 117.3 277.6 117.6 276.9 118.1 276 119.2 275.8 120.5 275.6 121.1 275.6 121.1 276.2 121.8L281.7 137.8 269 132.2C267.3 131.3 265.8 132.3 264.9 133.4 264.8 134.1 264.8 134.1 264.7 134.7 264.5 136 264.8 137.3 266 138.2L284.6 146.8 292.3 168.4 250.5 148.3C248.6 148 246.6 148.3 246.2 150.2 245.5 150.7 245.5 150.7 245.4 151.3 245.1 152.6 246.2 154.1 247.3 154.9L295.8 177.5 300.5 191.4 279.6 216.2 265.1 213.5 234.8 169.5C233.8 168.1 231.3 167.6 229.8 168.6S227.9 172.2 228.9 173.7L255.7 211.8 233 207.6 221.1 191.1C220.1 189.6 218.2 189.3 216.7 190.3 215.2 191.3 214.9 193.2 215.9 194.7L223.6 205.9 206.6 202.7C205.3 202.5 203.2 203.4 202.9 205.3 202.5 207.2 204.1 209.4 205.3 209.7L222.3 212.8 211.1 220.5C210.4 221 209.7 221.5 209.5 222.2 209.3 223.4 209.8 224.2 210.3 224.9 211.4 226.4 213.2 226.7 214.7 225.7L231.8 214.5 254.4 218.7 215.8 244.8C215 245.3 214.9 245.9 214.7 247.2 214.6 247.8 214.5 248.4 215 249.2 216 250.7 218.5 251.1 220 250.1L263.9 220.4 278.3 223.1 289.1 253.1 279.7 265 226.3 268.8C224.9 269.2 223.5 270.3 223.2 271.5 223.1 272.2 223.1 272.2 223.7 272.3 223.4 274.2 225 275.8 227.1 275.5L273.3 271.6 258.3 289.7 237.8 291.1C236.5 291.5 235.6 292.7 235.4 293.9 235.4 293.9 235.3 294.6 235.3 294.6 234.9 296.5 236.6 298.1 238.6 297.8L252.5 296.4 241.6 309.4C240.9 309.9 240.8 310.6 240.7 311.2 240.4 312.4 240.8 313.8 241.5 313.9 243.1 315.5 245.1 315.3 246.6 314.2L257.5 301.3 258.3 314.4C258.6 316.4 260.2 318 262.2 317.8 263.6 317.4 265.2 315.7 264.8 314.3L263.4 293.9 278.3 276.5 282.1 322.7C282.4 324.7 284.2 325.7 286.1 326.1 287.5 325.7 289.1 324 288.8 322ZM323.7 256.2L299.1 251.7 295.3 251 294 247.5 285.9 224.5 284.7 220.4 287.2 217.6 303 199 305.4 196.2 309.2 196.9 333.7 201.4 337.5 202.1 338.8 205.6 347 228.6 348.3 232.1 345.7 235.5 329.9 254.1 327.4 256.9 323.7 256.2Z" fill="rgba(56, 108, 11, 1)"></path><path d="M745.2 204.5L723.7 210.7 726.4 197.4C726.8 196.1 725.9 194.3 724 193.4 722.2 193.5 720.4 194.5 720.5 196.3L716.6 212.7 700 218.3 708.3 184C708.2 182.2 707.3 180.4 705.9 180 703.6 179.7 701.8 180.6 701.9 182.4L692.8 220.4 667.3 228.1 677.6 199.2 649.5 211.5 655.4 185.5 692.5 173.7C693 174.2 693.4 173.7 693.9 173.2 694.7 172.3 695.1 170.9 694.6 169.6 694.1 168.2 692.3 167.4 690.5 167.5L656.9 178.2 661.3 161.2 677.4 156.1C678.3 156.1 678.8 155.6 679.2 155.2 679.6 154.7 680 153.3 679.5 152 679 150.7 677.2 149.8 675.9 150.3L662.8 153.9 667.5 132C668.3 130.2 666.9 128.9 665.1 128.1 663.7 127.7 662 128.6 661.6 130.9L656.5 152.4 646.6 143.2C645.2 141.9 643 142.4 642.1 143.4 640.8 144.8 640.9 146.6 642.3 147.9L654.9 159.7 650.5 176.6 625.2 153C623.8 151.7 622 151.8 620.7 153.2 619.8 154.1 619.5 156.4 620.9 157.7L649 183.9 643.1 209.9 623.3 187 619.8 217.1 600.1 198.7 608.8 161.3C609.1 159 607.7 157.7 606.4 157.3 605 156.9 603.2 157.9 602.4 159.7L595 193.9 582.3 182.2 585.8 165.3C586.7 163.4 585.7 161.7 583.4 161.3 582 160.9 580.3 161.9 579.9 164.1L576.7 176.9 560.3 161.7C558.9 160.3 557.1 160.4 555.8 161.8S554.6 165 556 166.3L572.4 181.6 559.8 185.7C557.6 186.2 556.7 188 557.2 189.4 557.8 191.6 559.6 192.5 561.4 191.5L578 186.8 590.6 198.6 557 208.4C555.2 209.4 554.4 211.2 554.9 212.6 555.4 214.8 557.3 215.7 559 214.7L595.8 203.4 615.4 221.7 585.8 227.3 609.9 245.5 584.4 253.2 556.3 227C554.9 225.7 552.7 226.2 551.8 227.2 550.5 228.6 550.5 230.4 551.9 231.7L577.7 255.7 560.7 260.8 548 249C546.6 247.7 544.8 247.8 543.5 249.2 542.6 250.1 542.3 252.4 543.7 253.7L553.5 262.9 532.5 269.5C530.2 270 529.4 271.9 530.3 273.7 530.8 275 532.2 276.3 534 275.3L555.5 269.1 552.8 282.4C552.4 283.7 553.4 285.5 554.8 285.9 556.1 286.3 557.5 285.8 557.9 285.4 558.4 284.9 558.8 284.4 558.8 283.5L562.7 267.1 579.3 261.5 571 295.8C571 297.6 572 299.4 573.4 299.8 574.7 300.2 576.1 299.7 577 298.7 577.4 298.3 577.4 298.3 577.4 297.4L586.4 259.4 612 251.7 601.7 280.6 629.8 268.3 623.9 294.3 586.7 306.1C585.4 306.6 584.1 308 584.6 310.2 585.1 311.6 587 312.4 588.8 312.3L622.3 301.6 618 318.6 601.8 323.7C600 323.7 599.2 325.6 599.7 327.8 600.2 329.1 602.1 330 603.9 329.9L616.4 325.9 611.8 347.8C610.9 349.6 612.3 350.9 614.2 351.7 615.1 351.7 616.4 351.2 616.8 350.7 617.3 350.3 617.7 349.8 617.7 348.9L622.8 327.4 632.6 336.6C634 337.9 636.3 337.4 637.2 336.4L637.2 336.4C638.5 335 638.4 333.2 637 331.9L624.4 320.1 628.7 303.2 654 326.8C655.4 328.1 657.2 328 658.6 326.6S659.8 323.4 658.4 322.1L630.3 295.9 636.2 269.9 656 292.8 659.5 262.7 679.1 281.1 670.5 318.5C670.1 320.8 671.5 322.1 672.9 322.5 674.3 322.9 676 321.9 676.9 320.1L684.7 286.3 696.9 297.6 693.4 314.5C692.6 316.4 693.6 318.1 695.9 318.5 697.2 318.9 699 317.9 699.8 316.1L702.5 302.9 718.9 318.1C720.3 319.5 722.1 319.4 723.5 318S724.7 314.8 723.3 313.5L706.9 298.2 719.4 294.1C720.3 294.1 720.8 293.6 721.2 293.2 722.1 292.2 722.1 291.3 722 290.4 721.5 288.2 719.7 287.3 717.9 288.3L701.3 293 688.6 281.2 722.3 271.4C722.7 270.9 723.1 270.5 723.6 270 724.4 269 724.4 268.1 724.4 267.2 723.8 265 722 264.2 720.2 265.1L683.5 276.4 663.8 258.1 693.5 252.5 669.3 234.3 694.9 226.6 723 252.8C724.4 254.1 726.6 253.6 727.5 252.6 728.8 251.2 728.7 249.4 727.3 248.1L702 224.6 718.6 219 731.2 230.8C732.6 232.1 734.4 232 735.8 230.6S737 227.4 735.6 226.1L725.8 216.9 746.8 210.3C747.7 210.3 748.1 209.8 748.6 209.3 749 208.9 749.4 207.5 748.9 206.1 748.4 204.8 747 203.5 745.2 204.5ZM678.4 248.9L654.1 253.4 651.4 278 634.9 259.1 612.6 268.9 620.4 245.6 600.8 230.9 625.1 226.4 627.9 201.8 643.9 220.3 666.7 210.9 658.4 233.8 678.4 248.9Z" fill="rgba(56, 108, 11, 1)"></path><path d="M468.9 582.1L490.4 575.9 487.7 589.1C487.3 590.5 488.3 592.3 490.1 593.1 491.9 593 493.7 592.1 493.6 590.3L497.6 573.8 514.1 568.3 505.8 602.5C505.9 604.3 506.9 606.1 508.2 606.5 510.5 606.9 512.3 605.9 512.2 604.1L521.3 566.2 546.8 558.5 536.5 587.4 564.6 575.1 558.8 601.1 521.6 612.8C521.1 612.4 520.7 612.9 520.2 613.3 519.4 614.3 519 615.6 519.5 617 520 618.3 521.8 619.2 523.6 619.1L557.2 608.4 552.8 625.3 536.7 630.4C535.8 630.4 535.4 630.9 534.9 631.4 534.5 631.9 534.1 633.2 534.6 634.6 535.1 635.9 536.9 636.7 538.3 636.2L551.3 632.6 546.6 654.5C545.8 656.4 547.2 657.7 549 658.5 550.4 658.9 552.1 658 552.5 655.7L557.7 634.2 567.5 643.4C568.9 644.7 571.1 644.2 572 643.2 573.3 641.8 573.3 640 571.8 638.7L559.2 626.9 563.6 610 588.9 633.6C590.3 634.9 592.1 634.8 593.4 633.4 594.3 632.5 594.6 630.2 593.2 628.9L565.2 602.7 571 576.7 590.9 599.5 594.3 569.5 614 587.9 605.3 625.3C605 627.6 606.4 628.9 607.7 629.3 609.1 629.7 610.9 628.7 611.7 626.9L619.1 592.7 631.8 604.4 628.3 621.3C627.5 623.2 628.4 624.9 630.7 625.3 632.1 625.7 633.8 624.7 634.2 622.5L637.4 609.7 653.8 624.9C655.2 626.3 657 626.2 658.3 624.8S659.5 621.6 658.1 620.3L641.8 605 654.3 600.9C656.5 600.4 657.4 598.6 656.9 597.2 656.4 595 654.5 594.1 652.7 595.1L636.1 599.8 623.5 588 657.1 578.2C658.9 577.2 659.7 575.4 659.2 574 658.7 571.8 656.9 571 655.1 571.9L618.4 583.2 598.7 564.8 628.4 559.3 604.2 541.1 629.7 533.4 657.8 559.6C659.2 560.9 661.5 560.4 662.4 559.4 663.7 558 663.6 556.2 662.2 554.9L636.4 530.9 653.5 525.8 666.1 537.6C667.5 538.9 669.3 538.8 670.6 537.4 671.5 536.5 671.9 534.2 670.5 532.9L660.6 523.7 681.7 517.1C683.9 516.6 684.8 514.7 683.8 513 683.3 511.6 681.9 510.3 680.1 511.3L658.6 517.5 661.3 504.2C661.7 502.9 660.8 501.1 659.4 500.7 658 500.3 656.7 500.8 656.2 501.2 655.8 501.7 655.4 502.2 655.4 503.1L651.4 519.5 634.9 525.1 643.2 490.8C643.1 489 642.2 487.2 640.8 486.8 639.4 486.4 638.1 486.9 637.2 487.9 636.8 488.3 636.8 488.3 636.8 489.2L627.7 527.1 602.2 534.8 612.5 505.9 584.4 518.3 590.3 492.2 627.4 480.5C628.8 480 630.1 478.6 629.5 476.4 629 475 627.2 474.2 625.4 474.2L591.8 484.9 596.2 468 612.3 462.9C614.1 462.9 615 461 614.4 458.8 613.9 457.4 612.1 456.6 610.3 456.7L597.8 460.7 602.4 438.8C603.3 437 601.9 435.7 600 434.8 599.1 434.9 597.8 435.4 597.3 435.8 596.9 436.3 596.5 436.8 596.5 437.7L591.4 459.1 581.5 450C580.1 448.7 577.9 449.2 577 450.1L577 450.1C575.7 451.5 575.8 453.3 577.2 454.7L589.8 466.4 585.4 483.4 560.1 459.8C558.7 458.5 556.9 458.5 555.6 459.9S554.4 463.2 555.8 464.5L583.9 490.7 578 516.7 558.2 493.8 554.7 523.8 535 505.5 543.7 468.1C544 465.8 542.6 464.5 541.3 464.1 539.9 463.7 538.1 464.6 537.3 466.5L529.4 500.3 517.2 488.9 520.7 472C521.6 470.2 520.6 468.4 518.3 468 516.9 467.6 515.2 468.6 514.3 470.4L511.6 483.7 495.2 468.4C493.8 467.1 492 467.2 490.7 468.6S489.5 471.8 490.9 473.1L507.3 488.4 494.7 492.4C493.8 492.5 493.4 492.9 492.9 493.4 492.1 494.3 492.1 495.2 492.1 496.1 492.7 498.4 494.5 499.2 496.3 498.3L512.9 493.6 525.5 505.4 491.9 515.2C491.5 515.6 491 516.1 490.6 516.6 489.7 517.5 489.7 518.4 489.8 519.3 490.3 521.6 492.1 522.4 493.9 521.4L530.7 510.2 550.3 528.5 520.6 534.1 544.8 552.2 519.3 559.9 491.2 533.8C489.8 532.4 487.5 533 486.7 533.9 485.4 535.3 485.4 537.1 486.8 538.4L512.1 562 495.5 567.6 482.9 555.8C481.5 554.5 479.7 554.5 478.4 555.9S477.1 559.1 478.5 560.5L488.4 569.6 467.3 576.2C466.4 576.3 466 576.7 465.5 577.2 465.1 577.7 464.7 579.1 465.2 580.4 465.7 581.7 467.1 583 468.9 582.1ZM535.7 537.6L560 533.1 562.8 508.6 579.3 527.5 601.6 517.7 593.8 541 613.3 555.7 589 560.2 586.3 584.8 570.2 566.3 547.4 575.7 555.7 552.8 535.7 537.6Z" fill="rgba(255, 255, 255, 1)"></path><path d="M1015 306.5L997.6 304 1004.5 294.4C1005.4 293.5 1005.3 291.7 1004.1 290.4 1002.6 289.8 1000.9 289.9 1000 290.8L990.6 303.2 974.4 300.7 993.9 275.8C995 274.1 994.9 272.4 993.4 271.8 992.3 270.4 990.5 270.5 989.4 272.2L968 299.8 953.3 297.9 940.3 266.3 948.1 255.8 984.9 261.3C985.4 261.1 985.9 260.9 986.5 260.7 987 260.5 987.8 259.5 988.1 258.8 988.5 256.8 987.3 255.5 985.6 255.6L952.1 250.6 962 238 979.2 240.1C979.4 240.6 979.9 240.4 980.5 240.2 981.5 239.7 982.3 238.8 982.4 237.5 982.5 236.3 981.3 235 979.9 234.3L965.9 232.8 978.2 216.9C979 215.9 978.9 214.2 977.7 212.8 976.2 212.2 974.5 212.3 973.7 213.3L962.2 228.3 957.8 217.4C957.1 215.8 955.2 215.4 954.1 215.9 952.6 216.5 951.4 218.2 952.1 219.7L957.8 233.7 947.9 246.3 935.9 217.3C935.3 215.7 933.8 215.1 932.3 215.7 930.7 216.4 930.1 217.8 930.8 219.4L943.9 251.5 935.8 262.7 901.8 257.9 896.9 246 918.6 217.7C919.9 216.6 919.6 214.3 918.1 213.7 917 212.3 915.4 213 914.1 214.1L894.3 239.8 888.2 224.8 898.1 212.2C899 211.3 898.6 209 897.7 208.2S894.5 207.7 893.1 208.8L885.6 218.6 878.2 200.4C877.5 198.9 875.6 198.5 874 199.1 873 199.5 871.8 201.2 872.5 202.8L879.9 220.9 867.2 219.5C866 219.4 864.4 220 864 222 863.9 223.2 865.3 225.1 866.5 225.2L882.5 227.1 888.6 242.1 856.6 237.7C854.8 237.9 853.3 238.5 852.9 240.5 852.8 241.7 854.1 243.6 855.4 243.7L891.2 248.4 896.1 260.3 875.2 287.6 861.6 285.3 848.4 253.2C847.8 251.7 846.3 251 844.7 251.7 843.2 252.3 842.1 254 842.7 255.6L854.6 284.6 838.7 282.6 832.9 268.6C832.3 267.1 830.8 266.5 829.3 267.1 827.7 267.7 827.1 269.2 827.8 270.8L832.2 281.6 813.6 279C812.3 278.9 810.5 280.3 810.4 281.5 810.5 283.3 811.1 284.9 812.9 284.7L832.3 287.7 823.9 298.4C823.3 299.8 823.5 301.6 824.4 302.4 825.3 303.2 826.6 303.3 827.6 302.9 827.6 302.9 828.1 302.7 828.5 302L839.2 288.4 855.2 290.4 834.8 317.5C833.5 318.7 833.6 320.4 835.3 321.5 836 321.9 836.7 322.2 837.8 321.7 838.3 321.5 838.8 321.3 839.3 321.1L861.6 291.4 874.5 293.3 887.5 324.9 878.4 336.6 843.8 332C841.8 331.6 840.5 332.7 840.6 334.5 840 336 841.1 337.3 843.1 337.7L874.5 341.8 864.7 354.9 849.3 352.7C848 352.6 846.7 353.8 846.1 355.2 846.2 357 846.9 358.6 848.6 358.5L860.3 360.3 849.7 374.4C848.4 375.5 849 377.1 850.2 378.4 850.9 378.7 852.1 378.8 853.2 378.4 853.2 378.4 853.7 378.2 854.2 378L865.6 363 870.9 375.9C871.4 377 873 378.1 874.6 377.5 876.1 376.8 876.5 374.8 876.1 373.8L869.5 357.7 879.3 344.7 892.2 376.3C892.9 377.8 894.9 378.2 896.4 377.6S898.6 375.5 897.9 373.9L883.7 339.2 892 328.5 926.1 333.3 931.6 346.8 909.4 375.3C908.8 376.7 908.9 378.5 910.1 379.8 910.8 380.1 912 380.2 913.1 379.8 913.6 379.6 914.1 379.4 914.4 378.7L934.2 353 940.3 368 930.6 381.1C929.7 382.1 929.9 383.8 931 385.2 932.5 385.8 934.2 385.6 935.1 384.7L942.9 374.2 949.7 390.8C950.1 391.8 952.3 392.8 953.3 392.3 954.9 391.7 955.8 389.5 955.4 388.5L948.6 371.9 961 374.1C961.5 373.9 962 373.6 962.5 373.4 963.6 373 964.4 372.1 964.7 371.3 964.6 369.6 963.4 368.2 961.9 367.6L946 365.7 939.9 350.7 971.9 355C973.9 355.4 975.2 354.3 975.3 353 975.7 351.1 974.6 349.7 973.1 349.1L937.3 344.4 931.8 331 952.6 303.6 966.1 305.4 980.3 340.1C981 341.7 982.4 342.3 984 341.6 985.5 341 986.1 339.5 985.5 338L972.5 306.4 988.7 308.8 995.3 324.9C995.7 325.9 997.9 326.8 999.4 326.2 1001 325.6 1001.4 323.6 1001 322.5L995.6 309.6 1014.3 312.2C1014.8 312 1014.8 312 1015.3 311.8 1016.3 311.4 1017.2 310.4 1017.5 309.7 1017.4 307.9 1016.2 306.6 1015 306.5ZM929.2 324.8L926.7 327.6 923.5 327.1 895.9 323.3 892.7 322.8 891.4 319.7 881 294.3 879.7 291.2 881.7 288.6 898.6 266.5 900.6 263.9 904.3 264.1 931.4 268.2 935.2 268.4 936.4 271.5 946.9 296.9 948.1 300 945.7 302.9 929.2 324.8Z" fill="rgba(56, 108, 11, 1)"></path><path d="M930.5 892.3L950 892.7 944.3 903.1C943.7 904.1 944 905.9 945.3 907 946.8 907.5 948.6 907.1 949 905.6L956.6 892.9 971.9 892.5 956 919C955.6 920.5 955.9 922.3 957 922.9 958.8 923.9 960.5 923.5 960.9 922L978.4 892.7 1001.7 892.9 985.6 914.3 1012.3 911.4 1000.6 931.6 966.5 931.7C966.2 931.2 965.7 931.5 965.2 931.8 964.3 932.3 963.6 933.4 963.6 934.6 963.7 935.9 965 937.1 966.6 937.5L997.4 937.3 989.3 950.3 974.5 950.3C973.8 950.1 973.3 950.4 972.8 950.7 972.3 950.9 971.6 952 971.7 953.2 971.8 954.5 973.1 955.7 974.3 955.6L986.1 956 976.5 973C975.4 974.4 976.2 975.8 977.5 977 978.6 977.7 980.3 977.3 981.2 975.5L991.1 958.9 996.9 969.2C997.7 970.6 999.7 970.8 1000.7 970.2 1002.2 969.4 1002.6 967.8 1001.8 966.4L994.3 953.2 1002.3 940.3 1017.3 966.5C1018.2 968 1019.7 968.4 1021.1 967.6 1022.1 967 1023 965.2 1022.2 963.7L1005.5 934.6 1017.2 914.4 1027.8 938.6 1038.5 914.4 1050.2 934.9 1033.2 963.9C1032.3 965.7 1033.2 967.2 1034.2 967.9 1035.2 968.5 1037 968.2 1038.2 966.9L1053.2 940.2 1060.7 953.3 1053.4 966.5C1052.3 967.9 1052.6 969.6 1054.4 970.5 1055.5 971.2 1057.2 970.8 1058.1 969L1064.1 959.2 1073.8 976.2C1074.6 977.7 1076.1 978.1 1077.6 977.2S1079.5 974.9 1078.7 973.4L1068.9 956.4 1080.5 956.3C1082.5 956.4 1083.7 955.1 1083.6 953.8 1083.7 951.8 1082.4 950.6 1080.7 951L1065.6 950.6 1058.1 937.4 1088.7 938C1090.5 937.7 1091.7 936.3 1091.6 935.1 1091.7 933.1 1090.4 931.9 1088.7 932.2L1055.1 932.1 1043.4 911.7 1069.6 914.7 1054.2 893.3 1077.5 893.5 1094.2 922.7C1095 924.1 1097 924.3 1098 923.7 1099.4 922.9 1099.9 921.3 1099 919.9L1083.8 893.1 1099.3 893.3 1106.8 906.4C1107.6 907.9 1109.2 908.3 1110.6 907.5 1111.6 906.9 1112.5 905.1 1111.7 903.6L1105.8 893.4 1125.2 893.4C1127.2 893.5 1128.4 892.2 1128 890.4 1127.9 889.2 1127.1 887.7 1125.4 888.1L1105.8 887.7 1111.5 877.3C1112.2 876.3 1111.8 874.5 1110.8 873.8 1109.7 873.1 1108.5 873.2 1108 873.5 1107.5 873.8 1107 874 1106.8 874.8L1099.2 887.5 1084 887.9 1099.8 861.4C1100.2 859.9 1099.9 858.1 1098.8 857.4 1097.8 856.7 1096.6 856.8 1095.6 857.4 1095.1 857.6 1095.1 857.6 1094.9 858.4L1077.4 887.7 1054.1 887.5 1070.2 866 1043.6 869 1055.2 848.8 1089.3 848.7C1090.6 848.6 1092 847.8 1092.2 845.8 1092.1 844.5 1090.8 843.3 1089.3 842.9L1058.4 843.1 1066.5 830.1 1081.3 830.1C1082.8 830.5 1084 829.2 1084.1 827.1 1084.1 825.9 1082.7 824.7 1081.2 824.3L1069.7 824.4 1079.3 807.4C1080.5 806 1079.6 804.6 1078.3 803.4 1077.5 803.2 1076.3 803.3 1075.8 803.5 1075.3 803.8 1074.8 804.1 1074.6 804.8L1064.8 821.4 1058.9 811.2C1058.1 809.8 1056.1 809.6 1055.1 810.2L1055.1 810.2C1053.6 811 1053.2 812.5 1054.1 814L1061.6 827.1 1053.5 840.1 1038.5 813.9C1037.7 812.4 1036.1 812 1034.7 812.8S1032.8 815.2 1033.6 816.6L1050.3 845.8 1038.6 866 1028 841.8 1017.3 865.9 1005.6 845.5 1022.6 816.5C1023.5 814.7 1022.7 813.2 1021.6 812.5 1020.6 811.8 1018.8 812.2 1017.7 813.5L1002.3 839.7 995.1 827 1002.4 813.8C1003.6 812.5 1003.2 810.8 1001.4 809.9 1000.4 809.2 998.6 809.5 997.5 810.9L991.8 821.2 982 804.2C981.2 802.7 979.7 802.3 978.2 803.1S976.3 805.5 977.2 807L986.9 824 975.4 824.1C974.6 823.9 974.1 824.2 973.6 824.5 972.7 825 972.4 825.8 972.2 826.5 972.1 828.6 973.4 829.7 975.2 829.4L990.2 829.8 997.7 842.9 967.1 842.4C966.6 842.7 966.1 842.9 965.6 843.2 964.7 843.8 964.4 844.5 964.2 845.3 964.1 847.3 965.4 848.5 967.2 848.1L1000.8 848.3 1012.4 868.7 986.2 865.7 1001.7 887.1 978.3 886.9 961.7 857.7C960.8 856.3 958.8 856.1 957.8 856.7 956.4 857.5 956 859 956.8 860.5L971.8 886.8 956.5 887.1 949 874C948.2 872.5 946.7 872.1 945.2 872.9S943.3 875.3 944.2 876.8L950 887 930.7 887C929.9 886.8 929.4 887.1 928.9 887.4 928.4 887.6 927.8 888.7 927.8 889.9 927.9 891.2 928.7 892.7 930.5 892.3ZM997.8 872.5L1019.3 875.1 1028 855.3 1036.9 875.4 1058.1 873 1045.5 890.5 1058 907.8 1036.5 905.3 1027.8 925.1 1019.2 905.5 997.8 907.4 1010.6 890.4 997.8 872.5Z" fill="rgba(255, 255, 255, 1)"></path><path d="M1181.2 727.1L1169.3 677.5 1179.4 661.8 1183.3 678.5C1183.3 680.4 1185.2 681.1 1187.1 681.2 1188.4 680.6 1189.7 678.7 1189.1 677.4L1184.1 654.2 1193.5 638.5 1202 654.8 1194.9 677.6C1194.9 677.6 1194.9 678.2 1194.9 678.2 1194.8 679.5 1196.1 680.8 1197.3 681.5 1199.2 681.6 1200.5 681 1201.2 679.1L1206.2 662.6 1214.7 678.9 1200.4 727.7C1200.4 727.7 1199.7 728.3 1199.7 728.3 1199.7 729.6 1200.9 730.9 1202.2 731.6 1204.1 732.3 1206 731.1 1206.1 729.2L1218.9 686.7 1229.9 706.2 1224.1 725.2C1224.1 725.2 1224.1 725.2 1224.1 725.9 1224.1 727.2 1224.7 728.5 1225.9 729.1 1227.9 729.2 1229.8 728.6 1230.5 726.7L1234.1 714 1242 728.4C1242.6 730.3 1244.5 730.4 1245.8 729.8 1247.7 729.2 1248.4 727.3 1247.2 725.3L1240 711 1252 715.2C1253.9 715.3 1255.8 714.7 1255.9 712.8 1256.6 710.9 1256 709.6 1254.1 708.9L1235.1 703.2 1224.8 683.6 1267.9 696.5C1269.2 697.2 1271.1 696 1271.8 694.1 1271.9 692.8 1271.3 690.8 1269.4 690.1L1220.5 675.8 1212.1 659.6 1228.6 664.6C1230.5 665.3 1231.8 664 1232.5 662.1 1233.2 660.9 1231.9 658.9 1230.7 658.2L1207.8 651.8 1198.7 635.5 1217.3 636 1233.4 653.2C1234.6 654.5 1236.6 654.6 1237.9 653.3 1239.2 652.7 1239.3 650.2 1238 648.8L1226.2 636.3 1244.8 636.9 1279.5 674.4C1280.7 675.8 1282.7 675.8 1284 674.6 1285.3 673.3 1285.3 671.4 1284.1 670.1L1253.7 637.2 1275.5 637.8 1289.1 652.3C1290.4 653.6 1292.3 653.7 1293.6 652.5 1294.9 651.2 1295 649.3 1293.8 648L1285.1 638.1 1301.1 638.6C1303 638.7 1304.3 637.4 1304.4 635.5 1304.4 633.6 1303.2 632.3 1301.3 632.2L1285.3 631.7 1294.5 623C1295.8 621.8 1295.9 619.9 1294.7 618.6S1291.5 617.2 1290.2 618.4L1276.3 631.4 1253.9 630.8 1286.2 600.4C1287.6 599.1 1287.6 597.2 1286.4 595.9 1285.1 594.6 1283.2 594.5 1281.9 595.8L1245 630.5 1226.4 629.9 1239 618.1C1240.3 616.9 1240.3 615 1239.1 613.7 1237.9 612.3 1235.9 612.3 1234.6 613.5L1217.5 629.6 1199.6 629.1 1209 614 1232.2 608.3C1233.5 607.7 1234.9 605.8 1234.3 604.5 1233.7 602.6 1232.4 601.9 1230.5 601.9L1213.7 605.8 1223.2 590.8 1272.8 578.8C1274.8 578.3 1275.4 577 1275.5 575.1 1274.9 573.1 1273 572.4 1271.7 572.4L1227.9 582.6 1240 563.7 1258.7 559.2C1260.6 559.2 1261.3 557.3 1261.4 555.4 1260.8 554.1 1258.9 552.8 1257 553.4L1244.7 556.2 1252.8 542.4C1254.1 541.1 1253.6 539.2 1251.7 537.8 1250.4 537.2 1248.5 537.7 1247.8 539L1239 552.8 1236.2 539.9C1235.7 538 1233.8 537.3 1232.5 537.9 1230.5 537.8 1229.9 539.1 1229.8 540.4 1229.8 541 1229.8 541 1229.8 541.7L1234.3 560.4 1222.2 579.2 1212 536C1212.1 534.1 1210.2 533.4 1208.3 533.3 1207 533.9 1206.3 535.2 1206.3 536.4 1206.2 537.1 1206.2 537.1 1206.2 537.1L1217.5 587.4 1208.1 602.5 1204.1 585.7C1203.5 583.7 1202.3 583.1 1200.3 583 1199 583.6 1197.7 584.8 1197.7 586.1 1197.7 586.8 1197.7 586.8 1197.6 587.4L1203.3 610.6 1193.9 625.7 1185.4 610.1 1191.9 587.2C1192.6 585.3 1191.4 583.4 1190.1 582.7 1188.2 582.6 1186.2 583.2 1186.2 585.1L1181.2 601.6 1172.1 586 1187 536.5C1187.7 535.2 1186.5 533.3 1185.2 532.6 1183.3 532.5 1181.4 533.1 1180.7 535L1167.9 577.5 1157.6 558 1163.3 539.6C1164 537.7 1162.7 535.8 1160.8 535.7 1159.6 535 1157.6 535.6 1156.9 537.5L1153.3 550.2 1145.4 535.9C1144.8 534.6 1142.9 533.9 1141 534.4 1140.3 535.1 1139.7 536.3 1139.6 537.6 1139.6 537.6 1139.6 538.2 1139.6 538.9L1147.5 553.2 1134.8 549.6C1133.5 548.9 1131.6 550.2 1130.9 551.4 1130.9 552.1 1130.9 552.1 1130.9 552.1 1130.8 554 1132 555.3 1133.3 555.3L1151.7 561 1162.6 580.6 1119.5 567.7C1117.6 567.7 1116.3 568.3 1115.6 570.2 1115.6 570.2 1115.6 570.8 1115.6 570.8 1115.5 572.1 1116.1 573.4 1118 574.1L1166.9 589 1175.3 604.7 1158.9 599.7C1156.9 599.6 1155 600.2 1154.9 602.1 1154.3 602.1 1154.3 602.7 1154.3 602.7 1154.2 604 1155.5 605.3 1156.7 606L1179.6 612.5 1188.1 628.7 1170.1 628.2 1154 611C1152.8 609.7 1150.2 609.6 1148.9 610.9 1148.2 612.1 1148.2 614.1 1148.8 615.4L1161.2 627.9 1142.6 627.3 1107.9 590.4C1106.7 589.1 1104.8 589 1103.4 590.3 1102.1 591.5 1102.1 593.4 1103.3 594.8L1133.7 627.1 1111.3 626.4 1098.3 612.5C1097 611.2 1095.1 611.1 1093.8 612.4S1092.4 615.5 1093.7 616.9L1102.3 626.1 1086.3 625.6C1084.4 625.5 1083.1 626.8 1083 628.7 1083 630.6 1084.2 631.9 1086.1 632L1102.1 632.5 1092.9 641.8C1092.2 642.4 1091.6 643.1 1091.5 643.7 1091.5 644.3 1092.1 645.6 1092.7 646.3 1094 647.6 1095.9 647.7 1097.2 646.4L1111.1 632.8 1133.5 633.5 1101.2 664.5C1100.5 665.1 1099.8 665.7 1099.8 666.4 1099.8 667 1100.4 668.3 1101 669 1102.3 670.3 1104.2 670.3 1105.5 669.1L1142.4 633.7 1161 634.3 1147.8 646.1C1147.2 646.7 1147.1 648 1147.1 648.6 1147.1 649.2 1147.1 649.9 1147.7 650.5 1148.9 651.9 1151.5 651.9 1152.2 650.7L1169.9 634.6 1187.9 635.1 1178.4 650.8 1155.2 655.9C1153.9 656.5 1152.6 657.7 1152.5 659 1152.5 659.7 1152.5 659.7 1153.2 659.7 1153.1 661.6 1155 662.9 1156.9 662.4L1173.7 658.4 1164.2 674.1 1114 685.4C1112.7 686 1112 687.2 1111.9 688.5 1111.9 689.1 1111.9 689.1 1111.9 689.1 1112.5 691.1 1113.7 692.4 1115.7 691.8L1159.5 681.6 1147.4 700.5 1128.7 705C1126.8 705.6 1126.1 706.9 1126.1 708.1 1126.1 708.1 1126 708.8 1126 708.8 1126.6 710.7 1128.5 711.4 1129.8 711.5L1142.7 708 1134 721.8C1133.9 722.5 1133.9 723.1 1133.9 723.8 1133.9 724.4 1134.5 725.7 1135.1 726.4 1137 727.1 1138.9 727.1 1139.6 725.2L1148.4 711.4 1151.2 724.3C1151.8 726.2 1153.7 726.9 1154.9 727 1156.9 726.4 1157.6 724.5 1157.6 722.6L1153.1 703.9 1164.6 685 1174.8 728.2C1175.3 730.1 1177.2 731.5 1178.5 730.9 1180.4 730.3 1181.8 729.1 1181.2 727.1Z" fill="rgba(255, 255, 255, 1)"></path><path d="M227.3 491.6L234.1 507.8 222.3 506.8C221.1 506.6 219.6 507.6 219.1 509.3 219.3 510.8 220.3 512.3 221.5 512.5L237 514.2 243.2 529.3 211.9 525.5C209.8 525.4 208.4 526.4 208.6 528 208.1 529.7 209.1 531.1 211.1 531.2L245.7 535.3 251.7 548.9 231.3 576.3 218.3 575 204.1 540.7C203.6 540.3 203.2 540 202.7 539.7 202.3 539.3 201 539.1 200.3 539.2 198.4 539.9 197.8 541.6 198.8 543.1L211.8 574.4 195.9 572.3 188.8 556.5C189.1 556.1 188.7 555.8 188.2 555.4 187.3 554.8 186.1 554.5 185 555.1 183.9 555.7 183.3 557.3 183.6 558.9L189.4 571.7 169.5 569.4C168.3 569.2 166.8 570.2 166.2 571.9 166.5 573.4 167.5 574.9 168.7 575.1L187.4 577.2 180.4 586.6C179.4 587.9 180.1 589.8 181 590.5 182.3 591.5 184.4 591.6 185.4 590.3L194.4 578.1 210.3 580.2 191.6 605.4C190.6 606.7 190.8 608.3 192.2 609.3 193.5 610.3 195.1 610 196.1 608.7L216.8 580.8 230.6 582 244 613.6 236.4 624 201 620C199.3 619.4 197.5 620.9 197.7 622.5 197.2 624.2 198.5 625.2 200.2 625.7L232.4 629.4 222.7 642.4 206.8 640.3C205.5 640.1 203.7 641.6 203.5 642.8S204.8 645.8 206.4 646.4L218.7 647.8 207 663.5C206 664.9 206.6 666.8 208 667.8 208.9 668.5 210.9 668.6 211.9 667.2L223.6 651.5 228.9 663.1C229.5 664.2 230.8 665.2 232.7 664.5 233.8 664 234.7 661.8 234.2 660.7L227.6 646.1 237.3 633 250.1 662.8C251.1 664.2 252.4 665.2 254.3 664.6 255.5 664 256.4 661.9 255.8 660.7L241.3 627.7 249 617.3 283.2 621.1 288.3 633.9 267.6 661.8C266.6 663.2 266.8 664.7 268.1 665.7 269.5 666.7 271.5 666.8 272.5 665.5L291.2 640.3 297.8 655 288.7 667.1C287.7 668.4 288 670 289.3 671 290.7 672 292.2 671.8 293.2 670.4L300.3 661 307.6 678.3C308.2 679.4 310.3 680.3 311.4 679.8 312.9 678.8 313.9 677.4 312.9 676L305.4 657.8 318.8 659.5C320.4 659.2 321.9 658.2 322.1 657 322.3 655.7 321.7 654.6 320.8 654 320.8 654 320.4 653.6 319.6 653.7L302.5 651.5 295.9 636.8 329.6 640.3C331.3 640.8 332.8 639.8 332.9 637.8 332.7 637 332.6 636.2 331.7 635.5 331.3 635.2 330.8 634.9 330.4 634.5L293.4 630.8 288.4 618.7 308.8 591.3 323.5 593.1 337.4 625.1C338.1 627 339.8 627.6 341.2 626.5 342.8 626.3 343.3 624.6 342.6 622.7L330 593.8 346.2 595.4 352.3 609.7C352.9 610.8 354.6 611.4 356.1 611.1 357.6 610.1 358.6 608.8 357.6 607.3L353.2 596.4 370.7 598.2C372.3 598.7 373.3 597.4 373.9 595.7 373.8 594.9 373.2 593.8 372.3 593.1 372.3 593.1 371.9 592.8 371.4 592.5L352.7 590.4 361 579.2C361.7 578.3 361.8 576.3 360.5 575.3 359.1 574.3 357.2 575 356.6 575.9L346.2 589.8 330 588.2 350.3 560.8C351.3 559.4 350.7 557.5 349.3 556.5S346.4 555.7 345.4 557.1L323 587.2 309.6 585.6 296.1 553.9 304.8 542.3 340.6 546.6C342.2 546.3 343.7 545.3 344.2 543.7 344.1 542.9 343.5 541.8 342.6 541.1 342.2 540.7 341.7 540.4 340.9 540.5L308.8 536.9 318.5 523.8 334.7 525.4C336 525.7 337.4 524.6 338 523 337.7 521.4 336.7 519.9 335.5 519.7L322.5 518.4 333.2 504.1C333.8 503.2 333.5 500.8 332.6 500.1 331.2 499.1 328.9 499.5 328.2 500.4L317.5 514.8 313 503C312.6 502.7 312.1 502.4 311.7 502 310.8 501.4 309.5 501.1 308.7 501.2 307.3 502.3 306.7 503.9 307 505.5L313.5 520.2 303.8 533.2 291.1 503.5C290.4 501.6 288.7 501 287.6 501.6 285.7 502.2 285.1 503.9 285.4 505.5L299.8 538.6 291.1 550.3 257 546.5 251.5 534.1 273.9 504C274.9 502.6 274.7 501.1 273.3 500.1 272 499.1 270.4 499.3 269.4 500.6L249 528.1 242.8 513 253.2 499C253.8 498.1 253.5 495.8 252.2 494.8 250.8 493.8 248.9 494.5 248.2 495.4L239.9 506.6 232.5 489.3C232.1 488.9 232.1 488.9 231.6 488.6 230.7 487.9 229.5 487.7 228.7 487.8 227.3 488.8 226.7 490.5 227.3 491.6ZM287.1 555.7L290.8 556.3 292.1 559.3 303.1 584.9 304.3 588 302.3 590.7 285.9 612.7 283.9 615.4 280.7 615.1 253 611.9 249.7 611.6 248.1 608.2 237.5 583 235.8 579.6 237.8 576.9 254.2 554.9 256.2 552.2 259.9 552.9 287.1 555.7Z" fill="rgba(56, 108, 11, 1)"></path></g><defs><mask id="SvgjsMask2929"><rect width="1440" height="1080" fill="#ffffff"></rect></mask><linearGradient x1="6.25%" y1="-8.33%" x2="93.75%" y2="108.33%" gradientUnits="userSpaceOnUse" id="SvgjsLinearGradient2930"><stop stop-color="rgba(14, 71, 27, 1)" offset="0.19"></stop><stop stop-color="rgba(0, 246, 9, 1)" offset="1"></stop></linearGradient><filter id="SvgjsFilter2931"><feGaussianBlur stdDeviation="1"></feGaussianBlur></filter></defs></svg>