<svg xmlns="http://www.w3.org/2000/svg" version="1.1" xmlns:xlink="http://www.w3.org/1999/xlink" xmlns:svgjs="http://svgjs.dev/svgjs" width="1920" height="1080" preserveAspectRatio="none" viewBox="0 0 1920 1080"><g mask="url(&quot;#SvgjsMask2896&quot;)" fill="none"><rect width="1920" height="1080" x="0" y="0" fill="url(&quot;#SvgjsLinearGradient2897&quot;)"></rect><circle r="15.085" cx="551.855" cy="358.585" filter="url(#SvgjsFilter2898)" fill="rgba(255, 255, 255, 1)"></circle><circle r="16.78" cx="1803.81" cy="45.59" filter="url(#SvgjsFilter2898)" fill="rgba(255, 255, 255, 1)"></circle><circle r="16.54" cx="1644.94" cy="608" filter="url(#SvgjsFilter2898)" fill="rgba(255, 255, 255, 1)"></circle><circle r="10.945" cx="912.725" cy="847.985" filter="url(#SvgjsFilter2898)" fill="rgba(255, 255, 255, 1)"></circle><circle r="17.155" cx="909.995" cy="290.125" filter="url(#SvgjsFilter2898)" fill="rgba(255, 255, 255, 1)"></circle><circle r="13.315" cx="1715.045" cy="431.335" filter="url(#SvgjsFilter2898)" fill="rgba(255, 255, 255, 1)"></circle><circle r="14.705" cx="982.485" cy="620.255" filter="url(#SvgjsFilter2898)" fill="rgba(255, 255, 255, 1)"></circle><circle r="14.695" cx="588.695" cy="743.095" filter="url(#SvgjsFilter2898)" fill="rgba(255, 255, 255, 1)"></circle><circle r="11.89" cx="309.40999999999997" cy="1003.39" filter="url(#SvgjsFilter2898)" fill="rgba(255, 255, 255, 1)"></circle><circle r="17.955" cx="26.005" cy="548.8950000000001" filter="url(#SvgjsFilter2898)" fill="rgba(255, 255, 255, 1)"></circle><circle r="14.76" cx="50.71" cy="522.5600000000001" filter="url(#SvgjsFilter2898)" fill="rgba(255, 255, 255, 1)"></circle><circle r="13.46" cx="550.13" cy="291.13" filter="url(#SvgjsFilter2898)" fill="rgba(255, 255, 255, 1)"></circle><circle r="9.495" cx="296.425" cy="913.785" filter="url(#SvgjsFilter2898)" fill="rgba(255, 255, 255, 1)"></circle><circle r="11.36" cx="110.88" cy="542.5600000000001" filter="url(#SvgjsFilter2898)" fill="rgba(255, 255, 255, 1)"></circle><circle r="11.235" cx="1570.365" cy="814.845" filter="url(#SvgjsFilter2898)" fill="rgba(255, 255, 255, 1)"></circle><circle r="10.065" cx="419.565" cy="691.4350000000001" filter="url(#SvgjsFilter2898)" fill="rgba(255, 255, 255, 1)"></circle><circle r="15.445" cx="283.115" cy="446.885" filter="url(#SvgjsFilter2898)" fill="rgba(255, 255, 255, 1)"></circle><circle r="11.04" cx="379.11" cy="143.97" filter="url(#SvgjsFilter2898)" fill="rgba(255, 255, 255, 1)"></circle><circle r="13.67" cx="360.33000000000004" cy="625.9" filter="url(#SvgjsFilter2898)" fill="rgba(255, 255, 255, 1)"></circle><circle r="12.215" cx="1425.125" cy="571.745" filter="url(#SvgjsFilter2898)" fill="rgba(255, 255, 255, 1)"></circle><path d="M1753 1115.1L1783.9 1051.6 1802.1 1044.8 1835.1 1073.1 1831.8 1092.8 1773.1 1132.3C1772.5 1133 1772.5 1133 1772 1133.6 1770.9 1134.9 1770.4 1136.8 1771.8 1139.1 1773.7 1140.8 1775.6 1141.2 1777.9 1139.8L1829.1 1105.1 1823.5 1135.1 1801.1 1150.8C1801.1 1150.8 1800.6 1151.4 1800.6 1151.4 1799.5 1152.7 1799 1154.6 1800.4 1156.9 1801.1 1158.6 1804.2 1159 1806.5 1157.6L1821.5 1148 1817.1 1170.1C1816.7 1172 1818.1 1174.3 1820.6 1175.3S1825.3 1173.7 1826.3 1171.2L1830.1 1149.8 1840.3 1164.1C1841.7 1166.4 1844.7 1166.8 1847 1165.4 1848.2 1164.1 1849.2 1161.6 1847.8 1159.3L1832.2 1136.9 1838.3 1106.2 1873.1 1157.4C1874.4 1159.7 1877.5 1160.1 1879.3 1159.3 1880.9 1157.4 1881.9 1154.9 1880.6 1152.6L1840.4 1094.5 1844.3 1074.2 1884.4 1060.3 1899.9 1073.6 1905.9 1144C1906.1 1146.4 1908 1148 1910.4 1147.9S1914.5 1145.7 1914.3 1143.3L1909 1081.4 1933 1102 1935 1128.4C1935.2 1130.8 1937.1 1132.5 1940.2 1132.9S1944.2 1130.8 1944.1 1128.4L1942 1109.7 1959.5 1124.7C1961.5 1126.4 1964.4 1125.6 1966.1 1123.6 1967.8 1121.7 1967.6 1119.3 1965.6 1117.6L1948.1 1102.6 1966.2 1101.2C1969.2 1101.6 1970.9 1099.7 1970.1 1096.7 1969.9 1094.3 1968 1092.6 1965.5 1092.8L1939.1 1094.8 1915.1 1074.3 1977.1 1070.1C1979.5 1070 1981.8 1067.4 1981.6 1065S1979.4 1060.9 1977 1061.1L1906 1066.5 1890.5 1053.2 1898.8 1010.8 1917.6 1004.5 1981.1 1035.4C1983.6 1036.4 1985.9 1035 1987.6 1033 1988.6 1030.5 1987.2 1028.2 1985.3 1026.6L1929.4 1000 1958.3 989.9 1982.8 1001.9C1985.3 1003 1987.6 1001.6 1989.3 999.6 1989.8 997.8 1988.9 994.8 1986.4 993.8L1970.7 985.9 1991.9 978.2C1993.7 977.5 1994.7 975 1994.5 972.6 1993.1 970.3 1990.6 969.3 1988.8 970L1967.6 977.7 1975.4 960.7C1975.9 958.9 1975.1 955.9 1973.2 955.5 1971.3 953.8 1969.5 954.5 1967.8 956.5 1967.8 956.5 1967.3 957.1 1967.3 957.1L1955.2 981.7 1926.4 991.7 1952.9 935.8C1954 933.3 1953.8 930.9 1951.3 929.9 1948.8 928.9 1947 929.6 1945.9 930.9 1945.4 931.6 1945.4 931.6 1945.4 931.6L1914.6 996.3 1895.7 1002.5 1862.7 974.2 1866.7 955.1 1925.3 914.4C1927 913.6 1927.4 910.6 1926.7 908.8 1925.3 906.5 1922.2 906.1 1919.9 907.5L1868.7 942.3 1874.3 912.2 1896.7 896.6C1899 895.2 1900 892.7 1898.1 891 1896.7 888.7 1893.6 888.3 1891.9 889.1L1877 899.9 1881.3 877.8C1881.2 875.4 1879.8 873 1877.3 872 1876.1 872.1 1874.3 872.9 1873.2 874.2 1872.6 874.8 1872.6 874.8 1872.7 876L1868.4 898.1 1857.5 883.2C1856.2 880.9 1853.8 881.1 1852 881.8 1851.4 882.5 1851.4 882.5 1850.9 883.1 1849.8 884.4 1849.3 886.3 1850 888L1865.7 910.4 1860.1 940.5 1825.3 889.3C1823.4 887.6 1820.9 886.6 1819.2 888.6 1818 888.7 1818 888.7 1817.5 889.3 1816.4 890.6 1816.5 893 1817.3 894.8L1858.1 953.4 1854.1 972.4 1813.4 987 1798.5 974.3 1793.1 903.3C1792.9 900.9 1790.3 898.6 1787.9 898.8S1783.3 901.6 1783.5 904L1788.8 965.9 1765.5 945.9 1762.8 918.9C1762.7 916.5 1760.7 914.8 1758.3 915 1755.9 915.2 1754.2 917.1 1754.4 919.5L1755.8 937.6 1738.3 922.6C1737 921.5 1734 921.1 1732.3 923 1730.6 925 1730.9 928.6 1732.2 929.7L1749.7 944.7 1731.6 946.1C1730.4 946.2 1729.2 946.3 1728.7 946.9 1727.6 948.2 1727.7 949.4 1727.7 950.6 1727.9 953 1729.9 954.7 1732.3 954.5L1759.4 953 1782.7 973.1 1720.7 977.2C1719.5 977.3 1718.9 977.9 1717.8 979.2 1717.3 979.9 1716.7 980.5 1716.8 981.7 1717 984.1 1719.6 986.3 1722 986.2L1792.4 981.4 1807.3 994.2 1799.6 1035.9 1780.8 1043.4 1716.7 1012C1714.9 1011.5 1712.4 1011.7 1711.3 1013 1710.8 1013.6 1710.8 1013.6 1711.4 1014.2 1709.8 1016.1 1710.6 1019.1 1713.1 1020.1L1769 1046.7 1739.5 1057.4 1715 1045.4C1713.2 1044.9 1711.4 1045.7 1710.3 1047 1710.3 1047 1709.7 1047.6 1709.7 1047.6 1708.1 1049.6 1708.9 1052.5 1711.4 1053.5L1728.3 1061.3 1707.1 1069C1705.9 1069.1 1705.4 1069.7 1704.8 1070.4 1703.7 1071.7 1703.3 1073.5 1703.9 1074.1 1704.7 1077 1707.2 1078.1 1709.6 1077.9L1730.8 1070.2 1723 1085.9C1721.9 1088.4 1722.8 1091.4 1725.3 1092.4 1727.1 1092.9 1730.1 1092.1 1730.5 1090.2L1742.6 1065.7 1771.5 1055.6 1744.9 1111.5C1743.9 1114 1745.3 1116.3 1747.2 1118 1749 1118.4 1752 1117.6 1753 1115.1ZM1837.4 1062.7L1812.1 1041 1808.2 1037.7 1809.1 1032.8 1815.1 1000.8 1816.5 995.3 1821.2 993.7 1851.9 982.9 1856.6 981.3 1860.5 984.7 1885.7 1006.3 1889.6 1009.7 1888.8 1014.6 1882.7 1046.5 1881.9 1051.4 1876.6 1053.6 1846 1064.4 1841.3 1066 1837.4 1062.7Z" fill="rgba(255, 255, 255, 1)"></path><path d="M711.9 967L700.1 942.9 718.1 943.5C720 943.7 722.1 942 722.8 939.4 722.3 937 720.6 934.9 718.7 934.7L695 933.5 684.1 911.1 732.2 914C735.3 914 737.4 912.3 736.9 909.9 737.6 907.3 735.9 905.2 732.8 905.2L679.8 902.2 669.4 882.2 697.9 838.6 717.7 839.3 742.6 890.2C743.3 890.7 744.1 891.1 744.8 891.6 745.5 892.1 747.4 892.3 748.6 892 751.4 890.8 752.1 888.2 750.4 886.1L727.7 839.7 752.1 841.4 764.4 864.7C763.9 865.4 764.6 865.9 765.4 866.3 766.8 867.3 768.7 867.5 770.3 866.5 772 865.5 772.7 862.9 772.2 860.6L762 841.7 792.6 843.3C794.5 843.5 796.6 841.9 797.3 839.3 796.8 836.9 795.1 834.8 793.2 834.6L764.5 833.2 774.3 818.2C775.7 816 774.5 813.2 773.1 812.3 771 810.9 767.9 810.9 766.5 813.1L753.9 832.3 729.5 830.7 755.6 790.7C757 788.5 756.5 786.2 754.4 784.8 752.2 783.4 749.9 783.9 748.5 786L719.5 830.3 698.5 829.8 675.1 783 685.8 766.5 740 769.3C742.6 770 745.2 767.6 744.7 765.2 745.4 762.6 743.2 761.2 740.6 760.5L691.4 757.9 704.9 737.2 729.3 738.9C731.2 739.1 733.8 736.7 734 734.8S731.8 730.3 729.2 729.6L710.5 728.6 726.8 703.6C728.2 701.5 727 698.7 724.9 697.3 723.4 696.3 720.3 696.4 718.9 698.5L702.6 723.5 693.5 706.3C692.5 704.7 690.4 703.3 687.5 704.5 685.9 705.5 684.7 708.8 685.7 710.4L697 732.1 683.5 752.8 661.3 708.8C659.6 706.7 657.5 705.3 654.6 706.5 653 707.4 651.9 710.8 652.8 712.4L677.9 761.4 667.2 777.8 614.9 775.3 605.9 756.2 634.8 711.9C636.2 709.7 635.7 707.4 633.6 706 631.4 704.6 628.4 704.6 627 706.7L600.8 746.8 589.5 725.1 602.1 705.8C603.5 703.7 603 701.3 600.9 699.9 598.7 698.5 596.4 699 595 701.2L585.2 716.2 572.4 690.5C571.4 688.8 568.1 687.7 566.4 688.7 564.3 690.3 562.9 692.5 564.6 694.6L577.6 721.4 557 720.2C554.7 720.7 552.6 722.4 552.3 724.3 552.1 726.2 553.1 727.8 554.5 728.8 554.5 728.8 555.2 729.2 556.4 729L582.7 730.9 594 752.5 542.4 750.4C539.8 749.7 537.7 751.4 537.7 754.5 538 755.7 538.2 756.9 539.7 757.8 540.4 758.3 541.1 758.7 541.8 759.2L598.4 761.5 607.1 779.4 578.6 823 556.1 821.5 532 774.2C530.8 771.4 528.2 770.7 526.1 772.4 523.7 772.9 523 775.5 524.2 778.3L546.2 821.2 521.3 820.2 510.7 799C509.8 797.4 507.1 796.7 504.8 797.2 502.7 798.9 501.3 801 502.9 803.1L510.7 819.4 483.9 818.2C481.3 817.5 479.9 819.7 479.2 822.3 479.5 823.5 480.4 825.1 481.9 826.1 481.9 826.1 482.6 826.5 483.3 827L512 828.4 500.3 846.2C499.4 847.7 499.4 850.7 501.5 852.1 503.7 853.5 506.5 852.3 507.4 850.9L521.9 828.7 546.8 829.7 518.3 873.3C516.9 875.4 518.1 878.2 520.3 879.6S524.8 880.5 526.2 878.4L557.4 830.5 578 831.7 601.5 878.6 589.3 897.2 534.4 893.9C532 894.4 529.9 896.1 529.2 898.7 529.5 899.9 530.4 901.6 531.9 902.5 532.6 903 533.3 903.4 534.5 903.2L583.7 905.8 570.2 926.5 545.4 925.5C543.5 925.3 541.3 927 540.7 929.6 541.2 932 542.8 934.1 544.7 934.3L564.6 935.1 549.7 957.9C548.8 959.4 549.5 962.9 550.9 963.8 553.1 965.2 556.6 964.5 557.6 963.1L572.5 940.2 580.5 957.6C581.2 958.1 581.9 958.6 582.6 959 584 960 585.9 960.2 587.1 959.9 589.2 958.2 589.9 955.6 589.4 953.3L578.1 931.6 591.6 910.9 613.8 954.9C615 957.8 617.6 958.4 619.3 957.5 622.1 956.3 622.8 953.7 622.3 951.3L597.2 902.3 609.3 883.7 661.6 886.3 671.1 904.7 639.8 952.5C638.4 954.7 638.9 957 641.1 958.4 643.2 959.8 645.6 959.3 647 957.2L675.4 913.6 686.3 936 671.8 958.1C670.9 959.6 671.6 963.1 673.8 964.5 675.9 965.9 678.8 964.7 679.7 963.3L691.3 945.4 704.1 971.1C704.9 971.5 704.9 971.5 705.6 972 707 972.9 708.9 973.2 710.1 972.9 712.2 971.2 712.9 968.6 711.9 967ZM614.9 875.2L609.2 874.5 607 870 588 832.1 585.8 827.6 588.6 823.3 611.4 788.3 614.2 784 619.2 784.2 661.6 786.4 666.6 786.6 669.5 791.5 687.8 829 690.7 833.9 687.9 838.2 665.1 873.2 662.3 877.5 656.6 876.9 614.9 875.2Z" fill="rgba(255, 255, 255, 1)"></path><path d="M896.9 377.7L908.5 405.2 890.6 403.7C888.7 403.4 886.5 405 885.6 407.6 886 409.9 887.6 412.1 890 411.8L912.4 414.4 922.3 435.5 875.7 429.9C873.3 430.2 871.1 431.8 870.8 433.7 870.6 436.7 872.2 438.9 874.6 438.6L926.2 444.6 940.4 477.3 900.5 468.1 921.2 503.4 885.8 499.7 864.5 452.3C865 451.7 864.3 451.1 863.6 450.6 862.2 449.6 860.4 449.3 858.7 450.2 857 451.1 856.1 453.6 856.5 456L875.9 498.8 852.9 495.7 843.6 475.1C843.4 473.9 842.7 473.4 842 472.9 841.3 472.4 839.4 472.1 837.7 473 836.1 473.8 835.2 476.4 836.1 478.1L842.9 494.7 813.2 492C810.6 491.2 809.1 493.2 808.3 495.8 808 497.7 809.5 499.9 812.6 500L841.8 503.5 831.3 517.9C829.7 520 830.8 522.9 832.2 523.9 834.2 525.4 836.6 525 838.1 523L851.8 504.4 874.8 507.5 847.6 544.7C846.1 546.8 846.5 549.1 848.5 550.7 849.9 551.7 853 551.8 854.5 549.7L884.7 508.4 920.1 512.1 893 542 933.3 541.9 912.1 570.8 861.2 565.2C858.1 565.1 856.6 567.1 856.2 569 855.9 570.9 857.5 573.1 860.1 573.9L906.5 578.3 892.9 596.9 870 595C867.5 594.1 865.3 595.7 865.1 598.8 864.8 600.7 866.4 602.9 869.4 603L886.9 605.2 869.2 629.3C867.7 631.3 868.1 633.7 870.1 635.2S874.6 636.4 876.1 634.3L893.8 610.2 901.1 626.2C902.2 629.1 904.7 629.9 906.4 629 909.3 628 910.1 625.4 908.6 623.2L899.8 602 913.4 583.4 931.7 626.4C933.2 628.6 935.8 629.4 937.5 628.5 940.4 627.4 941.2 624.9 939.6 622.7L919 575.8 940.1 546.9 952.2 585.3 972.4 550.5 986.6 583.1 956.4 624.4C954.9 626.4 955.9 629.3 957.3 630.3 959.4 631.8 961.8 631.5 963.3 629.4L991 591.5 1000.5 613.3 986.8 631.9C985.3 633.9 985.7 636.3 987.8 637.8 989.1 638.8 992.2 639 993.7 636.9L1004.3 622.5 1016.4 649.3C1017.5 652.2 1020 653 1022.2 651.4 1023.9 650.6 1025.4 648.5 1023.9 646.3L1012.3 618.8 1030.2 620.3C1032.1 620.6 1034.3 619 1034.6 617.2 1035 615.3 1034.1 613.6 1033.4 613.1 1032.7 612.6 1032 612.1 1030.8 612.3L1008.4 609.6 998.5 588.6 1045.1 594.2C1047.5 593.8 1049.7 592.2 1050 590.4 1050.4 588.5 1049.5 586.8 1048.1 585.8 1047.4 585.3 1047.4 585.3 1046.2 585.5L994.6 579.4 980.4 546.8 1020.3 555.9 999.6 520.6 1035 524.3 1056.3 571.7C1057.2 573.4 1059.2 574.9 1062.1 573.8 1063.8 573 1064.7 570.4 1064.3 568L1044.9 525.2 1067.9 528.4 1077.2 548.9C1077.6 551.3 1080.2 552.1 1083 551.1 1084.7 550.2 1085.6 547.6 1085.2 545.2L1077.8 529.3 1107.6 532C1110.1 532.8 1111.7 530.8 1112.5 528.2 1112.3 527 1111.4 525.3 1110.7 524.8 1110 524.3 1109.4 523.8 1108.2 524L1078.9 520.6 1089.5 506.1C1091 504 1090 501.2 1088.6 500.1L1088.6 500.1C1086.5 498.6 1084.2 499 1082.6 501.1L1069 519.7 1046 516.5 1073.2 479.3C1074.7 477.3 1074.3 474.9 1072.3 473.4S1067.8 472.2 1066.3 474.3L1036 515.6 1000.7 511.9 1027.8 482.1 987.5 482.2 1008.7 453.3 1059.6 458.8C1062.7 459 1064.2 456.9 1064.5 455 1064.9 453.1 1063.3 450.9 1060.7 450.1L1014.8 445 1027.9 427.1 1050.8 429.1C1053.3 429.9 1055.5 428.3 1055.7 425.3 1056 423.4 1054.4 421.2 1051.9 420.3L1033.9 418.8 1051.6 394.7C1053.1 392.7 1052.7 390.3 1050.7 388.8S1046.2 387.6 1044.7 389.7L1027 413.8 1019.7 397.8C1019.5 396.6 1018.8 396.1 1018.1 395.6 1016.8 394.6 1015.6 394.8 1014.4 395 1011.5 396.1 1010.7 398.6 1012.2 400.8L1021 422.1 1007.4 440.7 989.1 397.7C988.4 397.2 987.8 396.7 987.1 396.2 985.7 395.2 984.5 395.3 983.3 395.5 980.4 396.6 979.6 399.2 981.2 401.4L1001.8 448.2 980.7 477.1 968.6 438.7 948.4 473.6 934.2 441 964.4 399.7C965.9 397.6 964.9 394.7 963.5 393.7 961.4 392.2 959 392.6 957.5 394.6L930.3 431.8 920.3 410.7 933.9 392.2C935.5 390.1 935.1 387.7 933 386.2S928.6 385.1 927.1 387.1L916.5 401.6 904.4 374.7C904.2 373.6 903.5 373 902.8 372.5 902.1 372 900.3 371.7 898.6 372.6 896.9 373.5 895.4 375.5 896.9 377.7ZM966.3 459.2L976 490.7 1009 490.5 986.5 515.3 1003.1 543.3 970.9 536.6 954.5 564.8 944.8 533.4 911.8 533.6 933.7 509.4 917.7 480.8 949.4 488.1 966.3 459.2Z" fill="rgba(255, 255, 255, 1)"></path><path d="M1553.6 267.7L1577.8 285 1561.8 293.2C1560 293.9 1559 296.4 1559.6 299 1561.2 300.8 1563.7 301.9 1565.5 300.3L1585.9 290.8 1605.5 303.5 1562.8 323.2C1561 324.8 1559.9 327.3 1560.6 329 1562.1 331.7 1564.6 332.8 1566.4 331.2L1613.6 309.3 1642.8 329.6 1604 342.8 1640.2 361.9 1608.1 377.3 1565.1 348.2C1565.1 347.4 1564.3 347.3 1563.4 347.2 1561.7 347.1 1560 347.8 1559 349.4 1558 351.1 1558.6 353.7 1560.2 355.5L1599.2 381.8 1577.9 391.2 1559.2 378.6C1558.4 377.6 1557.6 377.6 1556.7 377.5 1555.9 377.4 1554.1 378.2 1553.1 379.8 1552.1 381.4 1552.8 384 1554.4 385L1569 395.6 1542.2 408.9C1539.6 409.5 1539.4 412.1 1540.1 414.7 1540.8 416.5 1543.3 417.5 1546 416L1572.6 403.6 1571.2 421.5C1571 424 1573.4 425.9 1575.1 426.1 1577.7 426.3 1579.5 424.7 1579.7 422.2L1581.5 399.2 1602.8 389.8 1599.2 435.7C1599 438.2 1600.5 440.1 1603.1 440.3 1604.8 440.4 1607.5 438.9 1607.7 436.4L1611.8 385.3 1643.8 369.9 1636.4 409.6 1670.6 388.3 1667.7 424.1 1621.4 446C1618.8 447.5 1618.6 450.1 1619.3 451.9 1620 453.6 1622.5 454.7 1625.1 454L1667 433.4 1665.1 456.4 1644.6 466.7C1642 467.4 1640.9 469.9 1642.4 472.5 1643.2 474.3 1645.6 475.4 1648.3 473.9L1664.3 466.6 1661.9 496.4C1661.7 498.9 1663.3 500.8 1665.8 501S1670.2 499.6 1670.4 497.1L1672.8 467.3 1687.5 477C1689.9 478.9 1692.5 478.3 1693.5 476.6 1695.4 474.2 1694.7 471.6 1692.3 470.5L1673.6 457.1 1675.5 434.1 1713.6 461.1C1716 462.2 1718.7 461.5 1719.6 459.9 1721.5 457.5 1720.9 454.9 1718.4 453.8L1676.2 424.7 1679.1 389 1709.5 415.4 1708.5 375.1 1737.6 395.4 1733.6 446.5C1733.4 449 1735.8 450.9 1737.5 451.1 1740 451.3 1741.9 449.7 1742.1 447.1L1745.8 400.4 1765.3 413.9 1763.4 436.9C1763.2 439.4 1764.8 441.3 1767.3 441.5 1769 441.6 1771.7 440.1 1771.9 437.6L1773.4 419.7 1797.7 436.2C1800.1 438.1 1802.8 437.5 1803.8 435 1804.8 433.3 1805 430.8 1802.5 429.7L1778.2 412.4 1794.3 404.2C1796.1 403.5 1797.1 401 1796.4 399.3 1795.7 397.5 1794.1 396.5 1793.2 396.5 1792.4 396.4 1791.5 396.3 1790.6 397.1L1770.1 406.6 1750.6 393.9 1793.3 374.2C1795.1 372.6 1796.2 370.2 1795.5 368.4 1794.7 366.6 1793.1 365.6 1791.4 365.5 1790.6 365.4 1790.6 365.4 1789.6 366.2L1742.5 388.1 1713.3 367.8 1752 354.6 1715.9 335.5 1748 320.1 1791 349.2C1792.6 350.2 1795.2 350.4 1797.1 348 1798.1 346.3 1797.4 343.7 1795.9 341.9L1756.9 315.6 1778.2 306.2 1796.9 318.8C1798.4 320.7 1801 320 1802.9 317.6 1803.9 316 1803.3 313.4 1801.7 311.5L1787.1 301.8 1813.8 288.5C1816.5 287.9 1816.7 285.3 1816 282.7 1815.2 281.8 1813.6 280.8 1812.8 280.7 1811.9 280.7 1811.1 280.6 1810.1 281.4L1783.5 293.8 1784.9 275.9C1785.1 273.4 1782.7 271.5 1781 271.3L1781 271.3C1778.4 271.1 1776.6 272.7 1776.4 275.3L1774.5 298.2 1753.2 307.6 1756.9 261.7C1757.1 259.2 1755.6 257.3 1753 257.1S1748.6 258.5 1748.4 261L1744.3 312.1 1712.3 327.5 1719.7 287.8 1685.5 309.1 1688.4 273.3 1734.6 251.4C1737.3 249.9 1737.5 247.3 1736.8 245.5 1736.1 243.8 1733.6 242.7 1731 243.4L1689.2 263.1 1690.9 241 1711.5 230.7C1714.1 230 1715.1 227.5 1713.6 224.9 1712.9 223.1 1710.4 222 1707.8 222.7L1691.8 230.8 1694.2 201C1694.4 198.5 1692.8 196.6 1690.2 196.4S1685.8 197.8 1685.6 200.4L1683.3 230.1 1668.6 220.4C1667.8 219.5 1667 219.4 1666.1 219.3 1664.4 219.2 1663.5 220 1662.6 220.8 1660.7 223.2 1661.3 225.8 1663.8 226.9L1682.4 240.3 1680.6 263.3 1642.5 236.3C1641.7 236.2 1640.8 236.1 1640 236.1 1638.3 235.9 1637.4 236.7 1636.4 237.5 1634.5 239.9 1635.2 242.5 1637.7 243.6L1679.9 272.7 1677 308.4 1646.6 282 1647.6 322.3 1618.4 302 1622.5 250.9C1622.7 248.4 1620.3 246.5 1618.6 246.4 1616.1 246.1 1614.2 247.7 1614 250.3L1610.3 296.2 1590.8 283.5 1592.6 260.5C1592.9 258 1591.3 256.1 1588.7 255.9S1584.3 257.3 1584.1 259.9L1582.7 277.7 1558.4 261.2C1557.6 260.3 1556.7 260.2 1555.9 260.2 1555 260.1 1553.2 260.8 1552.3 262.4 1551.3 264.1 1551.1 266.6 1553.6 267.7ZM1655.4 300.7L1680.2 322.3 1708.1 304.9 1702 337.8 1730.8 352.9 1699.9 364.2 1700.7 396.7 1675.9 375.1 1648 392.5 1654 360.5 1625.3 344.5 1656.1 334.1 1655.4 300.7Z" fill="rgba(255, 255, 255, 1)"></path><path d="M1385.1 726.4L1393.3 705.6 1402.2 715.7C1403 716.9 1405 717.2 1406.8 716.3 1407.8 714.8 1408.1 712.8 1406.7 711.7L1396 698.6 1401.7 682.1 1423.8 709.5C1425.3 710.5 1427.3 710.9 1428.4 710 1430.1 708.4 1430.4 706.4 1429 705.4L1404.4 675.1 1413.8 650.2 1430.5 675.9 1437.8 646.1 1454.9 666.6 1441.6 703.3C1441 703.4 1441.1 704 1441.2 704.6 1441.4 705.9 1442.2 707 1443.6 707.5 1445 707.9 1446.7 706.9 1447.8 705.4L1459.7 672.3 1470.5 686 1464.7 701.9C1464.2 702.7 1464.3 703.3 1464.4 703.9 1464.5 704.6 1465.4 705.7 1466.7 706.1 1468.1 706.6 1469.9 705.6 1470.3 704.2L1475.3 691.7 1489.9 708.7C1490.8 710.5 1492.7 710.2 1494.5 709.3 1495.7 708.4 1496 706.4 1494.4 704.7L1480.5 687.6 1493.7 685.4C1495.6 685.1 1496.6 682.9 1496.4 681.7 1496 679.8 1494.6 678.7 1492.7 679.1L1475.6 681.9 1464.9 668.2 1499 662.4C1500.9 662.1 1501.9 660.6 1501.6 658.7 1501.4 657.5 1499.8 655.8 1497.9 656.1L1460 662.5 1442.9 642 1473.1 640.2 1451.4 619.2 1477.9 614.7 1502.4 644.3C1504 646 1505.9 645.7 1507 644.8 1508.2 644 1508.5 642 1507.5 640.2L1484.9 613.5 1501.9 610.7 1513.2 623.7C1514.1 625.5 1516.1 625.8 1517.8 624.2 1519 623.4 1519.3 621.4 1517.7 619.7L1509.5 609.4 1531.6 605.7C1533.5 605.3 1534.5 603.9 1534.2 602S1532.4 599 1530.5 599.3L1508.4 603.1 1512.8 590.6C1513.8 588.5 1512.8 586.7 1511.4 586.3 1509.3 585.4 1507.5 586.3 1507.2 588.3L1500.8 604.3 1483.8 607.2 1496.5 574.6C1496.8 572.6 1495.8 570.8 1494.5 570.4 1492.4 569.4 1490.6 570.4 1490.3 572.4L1476.9 608.4 1450.4 612.9 1464 585.9 1434.9 594.1 1444.3 569.1 1482.1 562.7C1484 562.4 1485 560.3 1484.8 559 1484.5 557.1 1483 556.1 1481.1 556.4L1446.4 562.3 1452.7 545.6 1469.7 542.7C1471.6 542.4 1472.6 541 1472.3 539.1 1472.1 537.8 1470.5 536.1 1468.6 536.4L1455.4 538.7 1462.9 517.9C1463.9 515.8 1462.9 514 1460.9 513.7 1459.5 513.3 1457.6 513.6 1457.3 515.6L1449.2 536.5 1440.3 526.3C1439.5 525.1 1437.5 524.8 1436.3 525.7 1435.2 526.5 1434.7 527.9 1434.8 528.5 1434.9 529.1 1435.1 529.8 1435.8 530.3L1446.4 543.4 1440.8 559.9 1418.6 532.5C1417.2 531.5 1415.2 531.2 1414 532 1412.9 532.9 1412.4 534.2 1412.7 535.5 1412.8 536.1 1412.8 536.1 1413.5 536.6L1438.1 566.9 1428.6 591.9 1412 566.1 1404.7 595.9 1387.6 575.4 1400.9 538.8C1401.3 537.4 1401 535.5 1398.9 534.6 1397.5 534.1 1395.7 535.1 1394.7 536.6L1382.7 569.7 1372 556 1377.7 540.1C1378.8 538.6 1377.8 536.8 1375.7 535.9 1374.4 535.5 1372.6 536.4 1371.5 537.9L1367.1 550.3 1352.6 533.3C1351.6 531.5 1349.7 531.8 1347.9 532.8 1347.4 533.5 1347 534.9 1347.1 535.5 1347.2 536.1 1347.3 536.8 1348.1 537.3L1362 554.4 1348.7 556.6C1346.8 557 1345.9 559.1 1346.1 560.3L1346.1 560.3C1346.4 562.2 1347.9 563.3 1349.8 563L1366.8 560.1 1377.6 573.9 1343.5 579.6C1341.6 579.9 1340.6 581.4 1340.9 583.3S1342.7 586.2 1344.6 585.9L1382.4 579.5 1399.5 600 1369.3 601.9 1391 622.9 1364.5 627.3 1340.1 597.7C1338.5 596 1336.6 596.3 1335.4 597.2 1334.3 598 1334 600 1334.9 601.8L1357 628.6 1340.5 631.4 1329.3 618.3C1328.3 616.6 1326.3 616.2 1324.6 617.8 1323.5 618.7 1323.2 620.7 1324.1 622.5L1333 632.6 1310.9 636.4C1309 636.7 1307.9 638.2 1308.3 640.1S1310.1 643 1312 642.7L1334 639 1329.6 651.4C1329.1 652.1 1329.2 652.7 1329.3 653.4 1329.5 654.6 1330.3 655.2 1331 655.7 1333.1 656.6 1334.9 655.7 1335.2 653.7L1341.6 637.7 1358.7 634.8 1346 667.4C1346.1 668.1 1346.2 668.7 1346.3 669.3 1346.5 670.6 1347.3 671.1 1348 671.7 1350.1 672.6 1351.9 671.6 1352.2 669.6L1365.6 633.6 1392.1 629.2 1378.5 656.1 1407.6 648 1398.2 672.9 1360.3 679.3C1358.4 679.6 1357.5 681.7 1357.7 683 1358 684.9 1359.5 685.9 1361.4 685.6L1395.5 679.9 1389.8 696.4 1372.8 699.3C1370.9 699.6 1369.8 701.1 1370.1 703S1371.9 705.9 1373.8 705.6L1387.1 703.4 1379.5 724.1C1379 724.8 1379.1 725.5 1379.2 726.1 1379.3 726.7 1380.2 727.9 1381.6 728.3 1382.9 728.7 1384.8 728.4 1385.1 726.4ZM1390.5 646.3L1401.7 624.3 1383.9 607.2 1408.9 605.6 1414.6 581.9 1428.5 602.3 1452 595.7 1440.8 617.7 1458.6 634.8 1434.2 636.3 1427.8 660.1 1414.6 639.6 1390.5 646.3Z" fill="rgba(255, 255, 255, 1)"></path><path d="M329.5 738.8L279.3 702.9 276 686.1 305.3 661.8 321.8 667.5 347.3 724C347.8 724.5 347.8 724.5 348.3 725.1 349.2 726.3 350.7 726.9 352.9 726.1 354.7 724.7 355.3 723.1 354.5 720.9L332 671.7 357.1 680.9 367.3 702.5C367.3 702.5 367.8 703.1 367.8 703.1 368.7 704.2 370.3 704.9 372.5 704 374.1 703.6 374.9 701.1 374 698.9L367.9 684.5 386.3 691.5C387.9 692.2 390.1 691.3 391.3 689.3S390.7 685 388.7 683.8L370.7 677.4 384.6 670.7C386.8 669.8 387.5 667.2 386.7 665 385.7 663.9 383.7 662.6 381.5 663.5L359.9 673.7 334.3 663.9 383.5 641.4C385.7 640.6 386.5 638 386.1 636.4 384.7 634.6 382.7 633.4 380.5 634.2L324.5 660.4 307.6 654 301.5 617.4 315.2 606 376.8 611.1C378.9 611.3 380.6 609.9 380.8 607.8S379.6 603.9 377.5 603.7L323.3 599.3 344.5 581.6 367.7 583.8C369.8 583.9 371.5 582.5 372.2 579.9S371 576.1 368.9 575.9L352.6 574.9 368.1 562.1C369.8 560.6 369.5 557.9 368.1 556.2 366.6 554.5 364.5 554.3 362.8 555.7L347.3 568.6 348.8 552.9C349.5 550.3 348.1 548.5 345.4 548.8 343.3 548.6 341.6 550.1 341.4 552.2L339.3 575.3 318 593 323.5 538.9C323.7 536.8 321.8 534.5 319.7 534.3S315.9 535.5 315.7 537.6L310 599.6 296.2 611.1 260.9 597.8 258.2 580.6 294.1 530.3C295.4 528.3 294.5 526.1 293.1 524.4 291.1 523.1 288.9 524 287.1 525.4L256 569.7 251.6 543.4 265.5 524C266.8 522 265.9 519.8 264.5 518 263 517.4 260.3 517.6 259 519.7L249.9 532.1 246.4 512.7C246.1 511 244 509.8 241.9 509.6 239.7 510.5 238.5 512.5 238.9 514.1L242.4 533.5 228.9 524.3C227.4 523.6 224.7 523.9 224 525.4 222.3 526.9 222.7 528.5 224.1 530.2 224.1 530.2 224.6 530.8 224.6 530.8L244 544.8 248.5 571.2 204.1 540C202.1 538.8 200 538.6 198.8 540.6 197.5 542.6 197.9 544.2 198.9 545.4 199.4 546 199.4 546 199.4 546L250.6 582 253.3 599.2 224 623.5 208.1 617.3 181.6 560.8C181.2 559.1 178.6 558.4 177 558.7 174.8 559.6 174 562.2 174.9 564.4L197.4 613.6 172.2 604.4 162 582.8C161.2 580.6 159.2 579.4 157.4 580.8 155.2 581.7 154.5 584.2 154.8 585.9L162 600.3 143.6 593.3C141.5 593.1 139.3 594 138 596 137.9 597 138.3 598.7 139.2 599.8 139.7 600.4 139.7 600.4 140.8 600.5L159.2 607.5 144.8 614.6C142.6 615.5 142.4 617.6 142.8 619.2 143.2 619.8 143.2 619.8 143.7 620.4 144.7 621.5 146.2 622.2 147.8 621.8L169.4 611.6 194.6 620.8 145.3 643.3C143.6 644.7 142.3 646.7 143.8 648.5 143.7 649.5 143.7 649.5 144.1 650.1 145.1 651.2 147.2 651.4 148.8 651.1L205.4 624.5 221.2 630.7 227.9 667.9 214.7 678.9 152.6 673.1C150.5 673 148.2 674.9 148 677S149.7 681.4 151.9 681.6L206.1 686 185.4 703.2 161.7 701.6C159.6 701.4 157.8 702.8 157.7 704.9 157.5 707 158.9 708.7 161 708.9L176.8 710.4 161.3 723.3C160.1 724.2 159.3 726.8 160.8 728.5 162.2 730.2 165.4 730.5 166.5 729.6L182 716.7 180.6 732.5C180.5 733.5 180.4 734.6 180.8 735.1 181.8 736.3 182.8 736.4 183.9 736.5 186 736.7 187.7 735.2 187.9 733.1L190.6 709.5 211.3 692.3 205.8 746.4C205.7 747.5 206.2 748.1 207.1 749.2 207.6 749.8 208.1 750.4 209.1 750.5 211.2 750.7 213.5 748.8 213.7 746.6L219.9 685.2 233.1 674.2 268 687 271.7 704.3 235.2 755C234.5 756.5 234.3 758.6 235.3 759.8 235.8 760.3 235.8 760.3 236.4 759.9 237.8 761.6 240.5 761.3 241.7 759.3L272.8 715 277.8 742 263.8 761.3C263.1 762.9 263.5 764.5 264.5 765.6 264.5 765.6 264.9 766.2 264.9 766.2 266.4 767.9 269 767.7 270.3 765.7L279.5 752.2 283 771.6C282.9 772.6 283.4 773.2 283.8 773.8 284.8 774.9 286.3 775.6 286.9 775.1 289.6 774.9 290.8 772.8 291 770.7L287.5 751.3 299.9 760.4C301.9 761.7 304.6 761.4 305.9 759.4 306.5 757.9 306.2 755.2 304.7 754.5L285.3 740.5 280.9 714.1 325.2 745.3C327.2 746.5 329.4 745.7 331.1 744.2 331.8 742.7 331.5 740 329.5 738.8ZM296.6 658.3L274.2 676.9 270.8 679.8 266.7 678.4 240 668.5 235.4 666.5 234.8 662.2 229.9 634.1 229.3 629.8 232.7 627 255.1 608.4 258.5 605.5 262.7 606.9 289.3 616.8 293.4 618.3 294.6 623.1 299.4 651.2 300.1 655.5 296.6 658.3Z" fill="rgba(255, 255, 255, 1)"></path><path d="M975.4 1077.5L926.2 1063.8 917.3 1047.4 933.9 1052.1C935.6 1053 937.1 1051.7 938.1 1050.1 938.2 1048.6 937.2 1046.6 935.8 1046.4L913 1039.6 903.9 1023.7 922.2 1024.2 938.7 1041.5C938.7 1041.5 939.3 1041.8 939.3 1041.8 940.4 1042.5 942.1 1042 943.3 1041.3 944.3 1039.6 944.4 1038.2 943.1 1036.6L931.1 1024.3 949.4 1024.8 985.2 1061C985.2 1061 985.4 1061.8 985.4 1061.8 986.5 1062.5 988.3 1062 989.5 1061.3 991 1059.9 990.9 1057.6 989.3 1056.7L958.3 1024.8 980.7 1024.8 994.6 1039C994.6 1039 994.6 1039 995.1 1039.3 996.2 1039.9 997.7 1040 998.9 1039.3 999.8 1037.6 1000.3 1035.6 998.9 1034.1L989.6 1024.8 1005.9 1024.9C1007.9 1025.3 1008.9 1023.6 1009 1022.2 1009.4 1020.2 1008.1 1018.7 1005.8 1018.8L989.8 1018.2 999.3 1009.7C1000.3 1008.1 1000.7 1006.1 999 1005.1 997.7 1003.6 996.3 1003.5 994.8 1004.8L980.6 1018.7 958.5 1018.3 990.6 986.7C991.8 986 991.7 983.7 990.4 982.1 989.3 981.5 987.3 981 985.8 982.4L949.6 1018.2 931.3 1017.7 943.6 1005.7C945.2 1004.4 944.7 1002.6 943.4 1001.1 942.6 999.9 940.3 1000 939.1 1000.8L922.4 1017.6 903.7 1017.7 913.2 1001.8 936 996C937.8 995.5 938.7 993.9 938.3 992.1 938.4 990.7 936.2 989.4 934.4 989.8L917.8 994.1 927.3 978.1 976.9 965.9C978.7 965.5 979.7 963.8 979.2 962.1 978.8 960.3 977.1 959.3 975.4 959.8L931.8 970.4 943 951.7 962.3 946.8C964 946.3 965 944.7 964.5 942.9 964.1 941.2 962.5 940.2 960.7 940.6L947.9 943.4 956 929.7C957 928 956.6 926.3 954.9 925.3 953.3 924.3 951.5 924.8 950.5 926.4L942.4 940.2 939.2 927.9C938.8 926.1 937.1 925.2 935.4 925.6S932.7 927.7 933.1 929.5L937.8 947.9 926.3 967.1 915.4 924.1C915 922.4 913.3 921.4 911.6 921.9 909.8 922.3 908.8 924 909.3 925.7L921.8 974.8 912.3 990.8 908 974.1C907.6 972.4 905.9 971.4 904.2 971.8 902.4 972.3 901.5 973.9 901.9 975.7L907.7 998.5 898.5 1013.9 889.9 998.3 896.2 975.3C896.3 973.8 895.3 971.8 893.9 971.7 891.9 971.2 890.7 972 889.7 973.6L885.1 990.2 876.4 974.7 890.1 925.5C890.5 923.5 889.7 922.3 888.1 921.3 886.1 920.9 884.6 922.2 883.9 923.3L871.6 966.6 861 946.9 866 928.3C867 926.6 865.7 925.1 864 924.1 862.6 924 860.5 925 860.1 927L856.6 939.1 848.5 925.3C848 923.5 846 923.1 844 924.1 842.8 924.9 842.3 926.9 843.1 928.1L850.9 942.4 838.3 938.6C836.3 938.2 834.8 939.5 834.7 940.9 833.7 942.6 834.5 943.8 835.6 944.4 836.1 944.8 836.1 944.8 836.7 945.1L855.3 950.2 865.9 969.9 823.1 957.9C821.5 956.9 819.9 958.2 819 959.9 818.9 961.3 819.6 962.5 820.7 963.2 821.3 963.5 821.3 963.5 821.3 963.5L870.7 978 879.4 993.6 862.8 988.9C860.8 988.5 859.6 989.2 858.6 990.9 858.5 992.3 858.9 994.1 860 994.7 860.6 995.1 860.6 995.1 861.1 995.4L884.2 1001.7 892.8 1017.2 875.1 1017.1 858.2 1000.3C856.9 998.8 854.6 998.9 853.4 999.7 852.4 1001.3 852 1003.3 853.6 1004.3L865.6 1016.7 847.5 1017.1 811.5 980C810.7 978.8 808.4 978.9 807.2 979.7 806.2 981.3 805.8 983.3 807.1 984.8L838.1 1016.7 816 1016.2 802.7 1002.3C801.4 1000.8 799 1000.9 798.1 1002.6 796.9 1003.3 796.4 1005.3 797.8 1006.8L807.1 1016.1 790.8 1016.1C789.3 1016 787.8 1017.3 787.4 1019.3 787.6 1020.2 788.4 1021.4 789.5 1022 789.5 1022 790 1022.3 790.6 1022.7L806.9 1022.7 797.6 1032.1C796.4 1032.9 796.6 1035.2 797.3 1036.4 797.9 1036.7 797.9 1036.7 797.9 1036.7 799.5 1037.7 801.3 1037.2 801.9 1036.1L815.8 1022.8 838.2 1022.7 806.1 1054.2C805.1 1055.9 805 1057.3 806.3 1058.8 806.3 1058.8 806.9 1059.2 806.9 1059.2 808 1059.8 809.4 1059.9 810.9 1058.6L847.7 1023.1 865.4 1023.2 853.1 1035.3C852.1 1036.9 851.7 1038.9 853.3 1039.9 853 1040.4 853.5 1040.7 853.5 1040.7 854.6 1041.4 856.4 1041 857.6 1040.2L874.3 1023.3 892.7 1023.8 883.5 1039.2 860.7 1045C858.9 1045.4 857.6 1047.6 858.1 1049.4 858.9 1050.6 860.5 1051.6 861.9 1051.7L878.9 1046.9 869.4 1062.9 820.3 1075.3C818.6 1075.8 817.6 1077.4 818 1079.2 818.5 1081 820.1 1081.9 821.9 1081.5L864.9 1070.6 853.4 1089.8 835 1094.5C833.2 1094.9 832.3 1096.6 832.7 1098.3S834.8 1101.1 836.6 1100.6L848.8 1097.5 840.7 1111.3C839.7 1112.9 840.1 1114.7 841.8 1115.6 843.4 1116.6 845.2 1116.2 846.2 1114.5L854.3 1100.8 858 1113.4C858.2 1114.3 858.5 1115.1 859 1115.5 859.6 1115.8 861 1115.9 861.9 1115.7 863.6 1115.2 864.6 1113.6 864.1 1111.8L858.9 1093.1 870.4 1073.8 881.8 1117.1C882.1 1118 882.3 1118.9 882.8 1119.2 883.4 1119.5 884.8 1119.6 885.7 1119.4 887.4 1119 888.4 1117.3 888 1115.6L874.9 1066.1 884.4 1050.2 888.3 1067.4C888.6 1068.3 889.7 1068.9 890.2 1069.2 890.8 1069.6 891.3 1069.9 892.2 1069.7 893.9 1069.2 895.2 1067 894.5 1065.8L889 1042.5 898.2 1027.1 907.3 1042.9 900.5 1065.7C900.4 1067.1 900.9 1068.9 902 1069.5 902.5 1069.9 902.5 1069.9 902.8 1069.3 904.5 1070.3 906.6 1069.3 907 1067.3L911.6 1050.7 920.8 1066.6 906.3 1116C906.2 1117.5 907 1118.7 908.1 1119.3 908.6 1119.7 908.6 1119.7 908.6 1119.7 910.6 1120.1 912.4 1119.6 912.8 1117.7L925.1 1074.4 935.8 1094.1 930.7 1112.7C930.2 1114.6 931 1115.8 932.1 1116.5 932.1 1116.5 932.7 1116.8 932.7 1116.8 934.6 1117.2 936.2 1115.9 936.8 1114.8L940.1 1101.9 947.9 1116.2C948.5 1116.5 949 1116.9 949.6 1117.2 950.1 1117.5 951.5 1117.6 952.4 1117.4 954 1116.1 954.9 1114.4 953.6 1112.9L945.8 1098.5 958.4 1102.3C960.4 1102.8 961.9 1101.4 962.6 1100.3 963 1098.4 961.7 1096.8 960 1095.8L941.4 1090.8 930.5 1071.6 973.2 1083.6C975.2 1084 977.3 1083 977.4 1081.6 977.8 1079.6 977.4 1077.9 975.4 1077.5Z" fill="rgba(255, 255, 255, 1)"></path><path d="M1785.7 553.7L1799.3 521.2 1808.3 517.3 1825.5 530.5 1824.4 540.4 1796.2 561.8C1795.9 562.1 1795.9 562.1 1795.6 562.4 1795.1 563.1 1794.9 564 1795.7 565.2 1796.7 565.9 1797.6 566.1 1798.8 565.4L1823.4 546.6 1821.4 561.8 1810.7 570.2C1810.7 570.2 1810.4 570.5 1810.4 570.5 1809.9 571.2 1809.7 572.1 1810.4 573.3 1810.9 574.1 1812.4 574.2 1813.5 573.5L1820.7 568.3 1819.2 579.4C1819 580.4 1819.7 581.5 1821 581.9S1823.3 581 1823.8 579.7L1825.1 568.9 1830.6 575.8C1831.3 576.9 1832.9 577 1834 576.3 1834.5 575.6 1834.9 574.3 1834.2 573.2L1825.8 562.4 1828 546.9 1846.7 571.5C1847.5 572.7 1849 572.8 1849.9 572.3 1850.7 571.3 1851.1 570.1 1850.3 568.9L1828.7 541 1830.1 530.8 1849.8 522.8 1857.9 529 1862.8 564C1862.9 565.1 1864 565.9 1865.1 565.8S1867.1 564.6 1867 563.4L1862.6 532.6 1875.1 542.2 1876.9 555.4C1877 556.6 1878 557.4 1879.6 557.5S1881.6 556.3 1881.4 555.1L1879.9 545.9 1889 552.9C1890 553.7 1891.5 553.2 1892.3 552.2 1893 551.1 1892.9 550 1891.9 549.2L1882.7 542.2 1891.7 541C1893.2 541.1 1894 540.1 1893.5 538.6 1893.4 537.4 1892.4 536.6 1891.2 536.8L1878 538.5 1865.5 528.9 1896.3 525.2C1897.5 525 1898.6 523.6 1898.4 522.4S1897.2 520.5 1896 520.6L1860.7 525.3 1852.6 519 1855.6 497.6 1864.8 494 1897.4 507.7C1898.6 508.1 1899.8 507.4 1900.5 506.3 1901 505.1 1900.2 504 1899.2 503.2L1870.6 491.4 1884.7 485.6 1897.3 490.9C1898.6 491.4 1899.7 490.6 1900.5 489.6 1900.7 488.7 1900.2 487.2 1898.9 486.8L1890.8 483.3 1901.2 478.9C1902.1 478.5 1902.5 477.2 1902.3 476 1901.6 474.9 1900.3 474.4 1899.4 474.8L1889.1 479.2 1892.5 470.6C1892.7 469.6 1892.2 468.2 1891.2 468 1890.2 467.2 1889.4 467.6 1888.6 468.7 1888.6 468.7 1888.3 469 1888.3 469L1883 481.6 1868.8 487.4 1880.6 458.8C1881 457.5 1880.9 456.3 1879.6 455.8 1878.3 455.4 1877.5 455.8 1877 456.5 1876.7 456.8 1876.7 456.8 1876.7 456.8L1863.1 490 1853.8 493.6 1836.6 480.4 1838 470.7 1866.2 448.8C1867.1 448.4 1867.2 446.8 1866.7 446 1866 444.9 1864.5 444.8 1863.3 445.5L1838.7 464.3 1840.7 449.1 1851.4 440.7C1852.6 439.9 1853 438.7 1852 437.9 1851.2 436.8 1849.7 436.7 1848.8 437.1L1841.7 442.9 1843.3 431.7C1843.1 430.5 1842.4 429.4 1841.1 429 1840.5 429 1839.6 429.5 1839.1 430.1 1838.8 430.5 1838.8 430.5 1838.9 431.1L1837.3 442.2 1831.5 435.1C1830.8 434 1829.6 434.1 1828.7 434.5 1828.5 434.9 1828.5 434.9 1828.2 435.2 1827.7 435.9 1827.5 436.8 1827.9 437.7L1836.3 448.5 1834.4 463.6 1815.6 439C1814.6 438.2 1813.3 437.8 1812.5 438.8 1811.9 438.9 1811.9 438.9 1811.7 439.2 1811.2 439.9 1811.3 441.1 1811.7 441.9L1833.7 470.1 1832.2 479.7 1812.3 488.1 1804.6 482.1 1799.9 446.8C1799.8 445.7 1798.4 444.6 1797.2 444.8S1795 446.3 1795.1 447.5L1799.5 478.2 1787.3 468.9 1785.2 455.5C1785.1 454.3 1784.1 453.5 1782.9 453.7 1781.7 453.8 1780.9 454.8 1781 456L1782.2 465 1773.1 458C1772.4 457.5 1770.9 457.4 1770.1 458.4 1769.3 459.4 1769.5 461.2 1770.2 461.7L1779.4 468.7 1770.4 469.9C1769.8 470 1769.2 470.1 1768.9 470.4 1768.4 471.1 1768.5 471.7 1768.6 472.3 1768.7 473.5 1769.7 474.2 1770.9 474.1L1784.4 472.6 1796.6 482 1765.8 485.7C1765.2 485.8 1764.9 486.1 1764.4 486.8 1764.1 487.2 1763.9 487.5 1764 488.1 1764.1 489.3 1765.5 490.3 1766.7 490.2L1801.7 485.9 1809.5 491.8 1806.8 512.9 1797.6 517.1 1764.7 503.2C1763.8 503 1762.6 503.2 1762.1 503.9 1761.8 504.2 1761.8 504.2 1762.1 504.5 1761.4 505.5 1761.9 506.9 1763.1 507.4L1791.8 519.1 1777.4 525.3 1764.8 519.9C1763.9 519.8 1763 520.2 1762.5 520.8 1762.5 520.8 1762.2 521.2 1762.2 521.2 1761.4 522.2 1761.9 523.7 1763.2 524.1L1771.9 527.5 1761.5 531.9C1760.9 532 1760.6 532.3 1760.4 532.7 1759.9 533.4 1759.7 534.3 1760 534.6 1760.5 536 1761.8 536.5 1763 536.3L1773.4 531.9 1769.9 540C1769.4 541.2 1769.9 542.7 1771.2 543.1 1772.1 543.3 1773.6 542.8 1773.8 541.9L1779.1 529.3 1793.3 523.5 1781.5 552.1C1781.1 553.4 1781.8 554.5 1782.8 555.3 1783.8 555.5 1785.2 555 1785.7 553.7ZM1826.3 525.2L1813.1 515.1 1811.1 513.5 1811.4 511.1 1813.5 495 1814.1 492.2 1816.4 491.2 1831.4 485 1833.7 484.1 1835.7 485.7 1848.9 495.8 1851 497.3 1850.7 499.8 1848.6 515.9 1848.3 518.4 1845.7 519.6 1830.7 525.9 1828.4 526.8 1826.3 525.2Z" fill="rgba(255, 255, 255, 1)"></path><path d="M657.4 162.8L638.7 162.8 643.9 152.9C644.6 151.8 644.2 150.2 642.9 149.1 641.5 148.7 639.8 149.1 639.4 150.6L632.5 162.8 618 163.5 632.5 138C632.8 136.5 632.5 134.9 631.5 134.2 629.7 133.4 628.1 133.8 627.7 135.2L611.8 163.5 589.5 163.9 604.4 143.1 579.1 146.5 589.7 127 622.2 126.1C622.5 126.6 622.9 126.3 623.4 126 624.3 125.5 624.9 124.4 624.8 123.3 624.8 122.1 623.5 121 622 120.6L592.6 121.5 600 109 614.1 108.6C614.8 108.7 615.3 108.5 615.8 108.2 616.2 107.9 616.9 106.9 616.8 105.7 616.7 104.5 615.4 103.4 614.2 103.5L602.9 103.5 611.7 87C612.8 85.7 612 84.3 610.7 83.2 609.7 82.6 608 83 607.2 84.7L598.2 100.7 592.4 91.1C591.6 89.8 589.6 89.7 588.7 90.2 587.4 91.1 587 92.5 587.8 93.9L595.3 106.2 587.9 118.8 573 94.1C572.2 92.7 570.7 92.4 569.4 93.2 568.4 93.7 567.6 95.5 568.4 96.9L585 124.3 574.3 143.8 563.6 120.9 554 144.2 542.4 125 557.9 97C558.7 95.2 557.9 93.9 556.9 93.2 555.9 92.6 554.3 93 553.2 94.2L539.4 120 532 107.6 538.6 94.9C539.7 93.6 539.3 92 537.6 91.2 536.6 90.5 535 90.9 534.1 92.6L528.7 102.2 519 86.2C518.2 84.8 516.7 84.4 515.4 85.3S513.6 87.6 514.5 88.9L524.1 104.9 513.1 105.3C511.2 105.2 510.1 106.5 510.2 107.7 510.1 109.6 511.4 110.7 513 110.3L527.4 110.4 534.8 122.7 505.7 122.9C504 123.2 502.9 124.5 503 125.7 502.9 127.6 504.2 128.7 505.9 128.4L537.9 127.7 549.4 146.9 524.4 144.6 539.6 164.7 517.4 165 500.8 137.6C500 136.2 498.1 136.2 497.2 136.7 495.8 137.5 495.5 139 496.3 140.4L511.4 165.5 496.6 165.7 489.2 153.4C488.3 152 486.9 151.6 485.5 152.5 484.6 153 483.8 154.8 484.6 156.1L490.4 165.7 472 166.2C470.1 166.1 469 167.4 469.4 169.1 469.5 170.2 470.3 171.6 471.9 171.2L490.6 171.2 485.4 181.2C484.8 182.2 485.1 183.8 486.1 184.5 487.1 185.1 488.3 185 488.8 184.7 489.2 184.5 489.7 184.2 489.9 183.5L496.8 171.2 511.3 170.5 496.9 196.1C496.5 197.5 496.9 199.2 497.9 199.8 498.9 200.5 500.1 200.4 501 199.8 501.4 199.5 501.4 199.5 501.6 198.8L517.6 170.5 539.8 170.2 524.9 191 550.3 187.5 539.6 207 507.1 207.9C505.9 208 504.6 208.9 504.5 210.8 504.6 212 505.9 213.1 507.3 213.4L536.7 212.5 529.3 225.1 515.2 225.5C513.8 225.1 512.7 226.4 512.6 228.3 512.7 229.5 514 230.6 515.4 231L526.4 230.6 517.6 247.1C516.6 248.3 517.4 249.7 518.7 250.8 519.4 251 520.6 250.9 521 250.6 521.5 250.3 522 250.1 522.1 249.3L531.2 233.3 536.9 242.9C537.8 244.3 539.7 244.4 540.6 243.8L540.6 243.8C542 243 542.3 241.5 541.5 240.2L534.1 227.8 541.4 215.3 556.3 239.9C557.1 241.3 558.6 241.7 560 240.8S561.7 238.6 560.9 237.2L544.4 209.8 555 190.3 565.7 213.1 575.3 189.9 586.9 209 571.4 237.1C570.6 238.8 571.4 240.2 572.4 240.8 573.4 241.5 575.1 241.1 576.2 239.8L590.2 214.5 597.4 226.4 590.7 239.1C589.6 240.4 590 242.1 591.7 242.9 592.7 243.5 594.4 243.1 595.5 241.9L600.7 231.9 610.3 247.9C611.1 249.2 612.6 249.6 614 248.8S615.7 246.5 614.9 245.1L605.2 229.1 616.2 228.7C616.9 228.9 617.4 228.6 617.9 228.4 618.8 227.8 618.9 227.1 619.1 226.4 619.2 224.4 617.9 223.3 616.3 223.7L601.9 223.6 594.5 211.3 623.7 211.2C624.1 210.9 624.6 210.6 625 210.3 626 209.8 626.1 209 626.3 208.3 626.4 206.4 625.1 205.3 623.5 205.7L591.5 206.3 579.9 187.1 605 189.4 589.7 169.3 612 169 628.5 196.4C629.3 197.8 631.2 197.9 632.1 197.3 633.5 196.5 633.9 195 633 193.7L618.2 169 632.7 168.3 640.2 180.7C641 182 642.4 182.4 643.8 181.6S645.5 179.3 644.7 177.9L638.9 168.3 657.3 167.8C658.1 168 658.5 167.7 659 167.5 659.4 167.2 660.1 166.2 660 165 659.9 163.8 659 162.4 657.4 162.8ZM593.7 183.1L573.2 181.2 565.4 200.2 556.5 181.3 536.3 184.1 547.9 167.1 535.6 150.9 556.1 152.9 564 133.8 572.6 152.3 593 149.9 581.1 166.4 593.7 183.1Z" fill="rgba(255, 255, 255, 1)"></path><path d="M1243.5 393.3L1246.4 380.2 1253.2 386C1253.9 386.7 1255.3 386.7 1256.3 385.9 1256.9 384.8 1256.9 383.5 1256.2 382.8L1247.3 374.9 1250 362.8 1268 378.9C1269.2 379.8 1270.5 379.8 1271.1 378.7 1272.1 377.9 1272.1 376.6 1270.9 375.6L1251.1 357.9 1253.3 346.9 1278 338.7 1285.5 345.2 1279.4 372.8C1279.6 373.2 1279.7 373.6 1279.8 374 1280 374.4 1280.6 375.1 1281.2 375.4 1282.7 375.8 1283.7 375 1283.7 373.6L1289.3 348.4 1298.3 356.7 1295.9 369.6C1295.5 369.7 1295.6 370.1 1295.8 370.5 1296 371.4 1296.7 372 1297.6 372.2 1298.6 372.3 1299.7 371.5 1300.2 370.4L1302.1 359.9 1313.6 370C1314.2 370.7 1315.6 370.7 1316.7 369.9 1317.2 368.8 1317.2 367.5 1316.5 366.8L1305.8 357.3 1314.3 354.5C1315.5 354.1 1315.9 352.6 1315.6 351.8 1315.2 350.6 1314 349.7 1312.8 350.1L1301.9 353.7 1292.8 345.5 1315.5 337.9C1316.7 337.5 1317.3 336.4 1316.9 335.2 1316.4 334 1315.4 333.5 1314.2 333.9L1289 342.2 1281 335.5 1286.4 309.8 1295.7 306.7 1316.1 324.7C1316.9 325.8 1318.6 325.6 1319.2 324.6 1320.2 323.8 1319.8 322.5 1319 321.5L1300.6 305.1 1312.3 301.2 1321.3 309.5C1322 310.1 1323.8 310 1324.4 309.3S1325 306.9 1324.2 305.8L1317.2 299.6 1331.3 294.9C1332.6 294.5 1333 293 1332.6 291.8 1332.3 291 1331.1 290 1329.9 290.4L1315.7 295.2 1317.5 285.6C1317.6 284.6 1317.2 283.4 1315.7 283 1314.8 282.9 1313.3 283.8 1313.1 284.8L1310.8 296.8 1299.1 300.7 1304.1 276.5C1304.1 275.2 1303.7 274 1302.2 273.5 1301.3 273.4 1299.8 274.4 1299.7 275.3L1294.2 302.3 1284.9 305.4 1265.2 288.1 1267.7 277.8 1292.8 269.5C1294 269.1 1294.5 268 1294.1 266.8 1293.7 265.6 1292.5 264.6 1291.3 265L1268.6 272.6 1270.9 260.6 1281.9 256.9C1283.1 256.5 1283.6 255.4 1283.2 254.2 1282.8 253 1281.7 252.5 1280.5 252.9L1272 255.7 1275 241.7C1275.1 240.7 1274.2 239.2 1273.3 239.1 1271.9 239.1 1270.7 239.5 1270.7 240.9L1267.4 255.4 1259.8 248.5C1258.7 248 1257.3 248 1256.7 248.7 1256 249.3 1255.8 250.3 1256.1 251.1 1256.1 251.1 1256.2 251.5 1256.8 251.8L1266.5 260.7 1264.2 272.7 1244.6 255.8C1243.8 254.7 1242.5 254.7 1241.5 255.9 1241.3 256.5 1241 257 1241.3 257.8 1241.4 258.2 1241.5 258.6 1241.7 259L1263.1 277.5 1260.9 287.3 1236.2 295.5 1227.9 287.9 1233.2 261.9C1233.6 260.4 1232.8 259.3 1231.4 259.3 1230.3 258.7 1229.3 259.6 1228.8 261L1224.1 284.6 1214.7 276.5 1217.1 264.9C1217.2 264 1216.4 262.9 1215.4 262.4 1214 262.4 1212.8 262.8 1212.8 264.1L1210.7 272.9 1200.6 264.1C1199.8 263 1198.6 263.4 1197.5 264.2 1197.3 264.8 1197.1 265.7 1197.4 266.5 1197.4 266.5 1197.5 266.9 1197.7 267.3L1208.5 276.8 1198.3 280.2C1197.5 280.4 1196.6 281.6 1197 282.9 1197.4 284.1 1198.9 284.5 1199.7 284.2L1212.2 280 1221.7 288.1 1197 296.3C1195.7 296.8 1195.3 298.2 1195.7 299.4S1197.2 301.2 1198.4 300.8L1225.6 291.8 1233.2 298.7 1227.8 324.3 1217.3 327.8 1196.8 309.4C1195.7 308.9 1194.4 308.9 1193.3 309.7 1193 310.2 1192.9 311.2 1193.2 312 1193.3 312.4 1193.4 312.8 1194 313.1L1212.4 329.4 1200.7 333.3 1191.3 325.2C1190.6 324.5 1189.2 324.5 1188.1 325.3 1187.6 326.4 1187.6 327.8 1188.3 328.4L1195.8 334.9 1182.9 339.2C1182.1 339.5 1181.2 341.1 1181.5 341.9 1181.9 343.1 1183.5 344 1184.3 343.7L1197.3 339.4 1195 348.7C1195.1 349.1 1195.3 349.5 1195.4 349.9 1195.7 350.7 1196.3 351.4 1196.9 351.7 1198.2 351.7 1199.3 350.9 1199.9 349.8L1202.2 337.8 1213.9 333.9 1208.9 358C1208.5 359.5 1209.3 360.6 1210.2 360.7 1211.7 361.1 1212.8 360.3 1213.3 359.2L1218.8 332.3 1229.3 328.8 1249 346.1 1246.9 356.2 1219.8 365.2C1218.6 365.6 1218 366.7 1218.5 367.9 1218.9 369.1 1219.9 369.6 1221.1 369.2L1245.8 361 1243.1 373.2 1230.6 377.3C1229.8 377.6 1229 379.2 1229.4 380.4 1229.8 381.7 1231.2 382.1 1232.1 381.8L1242.2 378.4 1239.2 392.5C1239.3 392.9 1239.3 392.9 1239.5 393.3 1239.7 394.1 1240.4 394.8 1240.9 395 1242.3 395 1243.4 394.2 1243.5 393.3ZM1234.2 327.2L1232.1 325.1 1232.7 322.7 1237 301.9 1237.6 299.5 1240 298.7 1259.8 292.1 1262.3 291.3 1264.2 292.9 1280.1 307 1281.9 308.6 1281.5 311.4 1277.1 331.8 1276.6 334.6 1274.2 335.4 1254.4 342 1251.9 342.8 1249.9 340.8 1234.2 327.2Z" fill="rgba(255, 255, 255, 1)"></path></g><defs><mask id="SvgjsMask2896"><rect width="1920" height="1080" fill="#ffffff"></rect></mask><linearGradient x1="10.94%" y1="-19.44%" x2="89.06%" y2="119.44%" gradientUnits="userSpaceOnUse" id="SvgjsLinearGradient2897"><stop stop-color="rgba(14, 71, 27, 1)" offset="0.19"></stop><stop stop-color="rgba(0, 246, 9, 1)" offset="1"></stop></linearGradient><filter id="SvgjsFilter2898"><feGaussianBlur stdDeviation="1"></feGaussianBlur></filter></defs></svg>