<svg width="130" height="130" viewBox="0 0 130 130" fill="none" xmlns="http://www.w3.org/2000/svg">
<g filter="url(#filter0_d_13_27)">
<path d="M97.5 101.337C97.5 92.563 91.1532 81.2498 81.25 81.25H48.75C38.8468 81.2498 32.5 92.563 32.5 101.337M16.25 65C16.25 38.0761 38.0761 16.25 65 16.25C91.9239 16.25 113.75 38.0761 113.75 65C113.75 91.9239 91.9239 113.75 65 113.75C38.0761 113.75 16.25 91.9239 16.25 65ZM81.25 48.75C81.25 57.7246 73.9746 65 65 65C56.0254 65 48.75 57.7246 48.75 48.75C48.75 39.7754 56.0254 32.5 65 32.5C73.9746 32.5 81.25 39.7754 81.25 48.75Z" stroke="#FFFDFD" stroke-width="2" stroke-linecap="round" stroke-linejoin="round"/>
</g>
<defs>
<filter id="filter0_d_13_27" x="-4" y="0" width="138" height="138" filterUnits="userSpaceOnUse" color-interpolation-filters="sRGB">
<feFlood flood-opacity="0" result="BackgroundImageFix"/>
<feColorMatrix in="SourceAlpha" type="matrix" values="0 0 0 0 0 0 0 0 0 0 0 0 0 0 0 0 0 0 127 0" result="hardAlpha"/>
<feOffset dy="4"/>
<feGaussianBlur stdDeviation="2"/>
<feComposite in2="hardAlpha" operator="out"/>
<feColorMatrix type="matrix" values="0 0 0 0 0.462833 0 0 0 0 0.706615 0 0 0 0 0.381572 0 0 0 1 0"/>
<feBlend mode="normal" in2="BackgroundImageFix" result="effect1_dropShadow_13_27"/>
<feBlend mode="normal" in="SourceGraphic" in2="effect1_dropShadow_13_27" result="shape"/>
</filter>
</defs>
</svg>
