<svg width="60" height="60" viewBox="0 0 60 60" fill="none" xmlns="http://www.w3.org/2000/svg">
<path d="M51.4286 4.28575H8.57146C6.20455 4.28575 4.28575 6.20455 4.28575 8.57146V27.8572C4.28575 30.2241 6.20455 32.1429 8.57146 32.1429H51.4286C53.7956 32.1429 55.7143 30.2241 55.7143 27.8572V8.57146C55.7143 6.20455 53.7956 4.28575 51.4286 4.28575Z" fill="#79EE8D"/>
<path fill-rule="evenodd" clip-rule="evenodd" d="M6.96432 8.57146C6.96432 7.68385 7.68385 6.96432 8.57146 6.96432H51.4286C52.3162 6.96432 53.0357 7.68385 53.0357 8.57146V27.8572C53.0357 28.7448 52.3162 29.4643 51.4286 29.4643H47.1429V25.7143C47.1429 24.0093 46.4657 22.3742 45.2602 21.1686C44.0546 19.9631 42.4193 19.2857 40.7143 19.2857H19.2857C17.5808 19.2857 15.9456 19.9631 14.7401 21.1686C13.5345 22.3742 12.8572 24.0094 12.8572 25.7143V29.4643H8.57146C7.68385 29.4643 6.96432 28.7448 6.96432 27.8572V8.57146ZM8.57146 1.60718C4.72521 1.60718 1.60718 4.72521 1.60718 8.57146V27.8572C1.60718 31.7034 4.72521 34.8215 8.57146 34.8215H51.4286C55.275 34.8215 58.3929 31.7034 58.3929 27.8572V8.57146C58.3929 4.72521 55.275 1.60718 51.4286 1.60718H8.57146ZM20.3572 40.7143C20.3572 38.9391 18.9181 37.5 17.1429 37.5C15.3677 37.5 13.9286 38.9391 13.9286 40.7143V45.4286C13.9286 46.9672 12.6814 48.2143 11.1429 48.2143H10.7143C8.93913 48.2143 7.50003 49.6535 7.50003 51.4286C7.50003 53.2037 8.93913 54.6429 10.7143 54.6429H11.1429C16.2318 54.6429 20.3572 50.5175 20.3572 45.4286V40.7143ZM42.8572 37.5C41.082 37.5 39.6429 38.9391 39.6429 40.7143V45.4286C39.6429 50.5175 43.7683 54.6429 48.8572 54.6429H49.2857C51.0609 54.6429 52.5 53.2037 52.5 51.4286C52.5 49.6535 51.0609 48.2143 49.2857 48.2143H48.8572C47.3186 48.2143 46.0715 46.9672 46.0715 45.4286V40.7143C46.0715 38.9391 44.6323 37.5 42.8572 37.5ZM33.2143 40.7143C33.2143 38.9391 31.7752 37.5 30 37.5C28.2248 37.5 26.7857 38.9391 26.7857 40.7143V55.7143C26.7857 57.4895 28.2248 58.9286 30 58.9286C31.7752 58.9286 33.2143 57.4895 33.2143 55.7143V40.7143Z" fill="white"/>
</svg>
